<svg xmlns="http://www.w3.org/2000/svg" viewBox="0 0 630 200"><defs><style>.cls-1{fill:#d11f30;}.cls-2{fill:#fff;}.cls-3{fill:#91561a;}.cls-10,.cls-11,.cls-12,.cls-3,.cls-4,.cls-5,.cls-6,.cls-7,.cls-8,.cls-9{fill-rule:evenodd;}.cls-4{fill:#b5722f;}.cls-5{fill:#f8dccc;}.cls-6{fill:#64b0d9;}.cls-7{fill:#f0cdb9;}.cls-8{fill:#4a83c9;}.cls-9{fill:gray;}.cls-10,.cls-13{fill:#666;}.cls-11{fill:#e6e6e6;}.cls-12{fill:#c2c7cc;}.cls-14{fill:#f8b8bd;}</style></defs><title>Advanced</title><g id="Layer_2" data-name="Layer 2"><g id="Layer_1-2" data-name="Layer 1"><rect class="cls-1" width="630" height="200" rx="10"/><path class="cls-2" d="M207.86,94.15H190.31l-3.35,8.1h-9l16.85-37.8h8.64l16.9,37.8h-9.17ZM205.1,87.5l-6-14.47-6,14.47Z"/><path class="cls-2" d="M253.05,62.18v40.07h-8V98.9c-2.11,2.54-5.19,3.78-9.07,3.78-8.21,0-14.53-5.83-14.53-15s6.32-15,14.53-15a11.18,11.18,0,0,1,8.69,3.51V62.18Zm-8.26,25.54c0-5-3.24-8-7.4-8s-7.45,3-7.45,8,3.24,8,7.45,8S244.79,92.74,244.79,87.72Z"/><path class="cls-2" d="M289.67,73.19l-12.26,29.06h-8.7l-12.2-29.06h8.69L273.25,93l8.32-19.77Z"/><path class="cls-2" d="M317.85,85.67v16.58H310V98.63c-1.57,2.64-4.59,4.05-8.86,4.05-6.8,0-10.85-3.78-10.85-8.8s3.62-8.7,12.47-8.7h6.7c0-3.62-2.16-5.72-6.7-5.72a14,14,0,0,0-8.37,2.7l-3-5.89c3.19-2.27,7.88-3.51,12.53-3.51C312.72,72.76,317.85,76.87,317.85,85.67Zm-8.42,7.4v-3h-5.78c-3.94,0-5.18,1.45-5.18,3.4S300.25,97,303.22,97C306,97,308.46,95.71,309.43,93.07Z"/><path class="cls-2" d="M355.17,85.61v16.64h-8.43V86.91c0-4.7-2.16-6.86-5.88-6.86-4.05,0-7,2.49-7,7.83v14.37h-8.42V73.19h8V76.6a12.7,12.7,0,0,1,9.61-3.84C350,72.76,355.17,76.76,355.17,85.61Z"/><path class="cls-2" d="M361,87.72c0-8.75,6.75-15,16.2-15,6.1,0,10.9,2.65,13,7.4l-6.54,3.51a7.24,7.24,0,0,0-6.53-4c-4.26,0-7.61,3-7.61,8s3.35,8,7.61,8a7.13,7.13,0,0,0,6.53-4l6.54,3.56c-2.11,4.65-6.91,7.35-13,7.35C367.7,102.68,361,96.47,361,87.72Z"/><path class="cls-2" d="M422.94,90.1H401c.81,3.61,3.89,5.83,8.32,5.83a9.87,9.87,0,0,0,7.29-2.81L421.05,98c-2.7,3.08-6.75,4.7-12,4.7-10.05,0-16.58-6.32-16.58-15s6.64-15,15.5-15c8.53,0,15.12,5.73,15.12,15.07C423.1,88.48,423,89.39,422.94,90.1Zm-22.09-4.92h14.31a7.26,7.26,0,0,0-14.31,0Z"/><path class="cls-2" d="M458.31,62.18v40.07h-8.05V98.9c-2.11,2.54-5.18,3.78-9.07,3.78-8.21,0-14.53-5.83-14.53-15s6.32-15,14.53-15a11.17,11.17,0,0,1,8.69,3.51V62.18ZM450,87.72c0-5-3.24-8-7.39-8s-7.46,3-7.46,8,3.24,8,7.46,8S450,92.74,450,87.72Z"/><path class="cls-2" d="M182.76,120.24h1.48v14h-1.48Z"/><path class="cls-2" d="M198.18,128.14v6.11h-1.42v-6c0-2.23-1.16-3.37-3.16-3.37a3.45,3.45,0,0,0-3.68,3.8v5.53H188.5V123.72h1.36v1.94a4.42,4.42,0,0,1,4-2C196.42,123.64,198.18,125.12,198.18,128.14Z"/><path class="cls-2" d="M212.82,133.61a3.38,3.38,0,0,1-2.22.74,2.79,2.79,0,0,1-3.08-3.06v-6.37h-1.88v-1.2h1.88v-2.3h1.42v2.3h3.2v1.2h-3.2v6.29a1.68,1.68,0,0,0,1.82,1.92,2.35,2.35,0,0,0,1.56-.54Z"/><path class="cls-2" d="M225.08,128.14v6.11h-1.42v-6c0-2.23-1.16-3.37-3.16-3.37a3.45,3.45,0,0,0-3.68,3.8v5.53H215.4V119.4h1.42v6.16a4.45,4.45,0,0,1,3.94-1.92C223.32,123.64,225.08,125.12,225.08,128.14Z"/><path class="cls-2" d="M228.62,120.4a1,1,0,0,1,1-1,1,1,0,0,1,1,1,1,1,0,0,1-2.08,0Zm.32,3.32h1.42v10.53h-1.42Z"/><path class="cls-2" d="M232.86,133.05l.64-1.12a6.35,6.35,0,0,0,3.74,1.18c2,0,2.82-.68,2.82-1.73,0-2.74-6.82-.58-6.82-4.74,0-1.72,1.48-3,4.16-3a7.13,7.13,0,0,1,3.72,1l-.62,1.14a5.39,5.39,0,0,0-3.1-.9c-1.9,0-2.74.74-2.74,1.74,0,2.85,6.82.7,6.82,4.75,0,1.82-1.6,3-4.34,3A7,7,0,0,1,232.86,133.05Z"/><path class="cls-2" d="M249.34,119.4h1.42v14.85h-1.42Z"/><path class="cls-2" d="M263.88,129.43h-8.8a3.9,3.9,0,0,0,4.14,3.66,4.15,4.15,0,0,0,3.22-1.38l.8.92a5.56,5.56,0,0,1-9.58-3.65,5.07,5.07,0,0,1,5.14-5.34,5,5,0,0,1,5.1,5.34C263.9,129.11,263.88,129.27,263.88,129.43Zm-8.8-1.06h7.46a3.74,3.74,0,0,0-7.46,0Z"/><path class="cls-2" d="M275.44,123.72l-4.68,10.53H269.3l-4.66-10.53h1.48l3.94,9,4-9Z"/><path class="cls-2" d="M286.3,129.43h-8.8a3.9,3.9,0,0,0,4.14,3.66,4.15,4.15,0,0,0,3.22-1.38l.8.92a5.56,5.56,0,0,1-9.58-3.65,5.07,5.07,0,0,1,5.14-5.34,5,5,0,0,1,5.1,5.34C286.32,129.11,286.3,129.27,286.3,129.43Zm-8.8-1.06H285a3.74,3.74,0,0,0-7.46,0Z"/><path class="cls-2" d="M289.22,119.4h1.42v14.85h-1.42Z"/><path class="cls-2" d="M298.78,129a5.18,5.18,0,0,1,5.42-5.34,4.59,4.59,0,0,1,4.12,2.08l-1.06.72a3.58,3.58,0,0,0-3.06-1.56,4.11,4.11,0,0,0,0,8.21,3.54,3.54,0,0,0,3.06-1.55l1.06.73a4.64,4.64,0,0,1-4.12,2.08A5.2,5.2,0,0,1,298.78,129Z"/><path class="cls-2" d="M309.86,129a5.35,5.35,0,1,1,5.36,5.37A5.17,5.17,0,0,1,309.86,129Zm9.26,0a3.91,3.91,0,1,0-3.9,4.11A3.84,3.84,0,0,0,319.12,129Z"/><path class="cls-2" d="M333.14,128.14v6.11h-1.42v-6c0-2.23-1.16-3.37-3.16-3.37a3.45,3.45,0,0,0-3.68,3.8v5.53h-1.42V123.72h1.36v1.94a4.42,4.42,0,0,1,4-2C331.38,123.64,333.14,125.12,333.14,128.14Z"/><path class="cls-2" d="M342.54,133.61a3.38,3.38,0,0,1-2.22.74,2.79,2.79,0,0,1-3.08-3.06v-6.37h-1.88v-1.2h1.88v-2.3h1.42v2.3h3.2v1.2h-3.2v6.29a1.68,1.68,0,0,0,1.82,1.92,2.35,2.35,0,0,0,1.56-.54Z"/><path class="cls-2" d="M353.06,127.72v6.53H351.7v-1.64a4,4,0,0,1-3.62,1.74c-2.38,0-3.84-1.24-3.84-3.06,0-1.62,1-3,4.06-3h3.34v-.64c0-1.8-1-2.78-3-2.78a5.36,5.36,0,0,0-3.5,1.24l-.64-1.06a6.68,6.68,0,0,1,4.28-1.42C351.52,123.64,353.06,125,353.06,127.72Zm-1.42,3.37v-1.72h-3.3c-2,0-2.7.8-2.7,1.88s1,2,2.66,2A3.37,3.37,0,0,0,351.64,131.09Z"/><path class="cls-2" d="M356.6,120.4a1,1,0,0,1,1-1,1,1,0,0,1,1,1,1,1,0,0,1-2.08,0Zm.32,3.32h1.42v10.53h-1.42Z"/><path class="cls-2" d="M372,128.14v6.11h-1.42v-6c0-2.23-1.16-3.37-3.16-3.37a3.45,3.45,0,0,0-3.68,3.8v5.53H362.3V123.72h1.36v1.94a4.42,4.42,0,0,1,4-2C370.22,123.64,372,125.12,372,128.14Z"/><path class="cls-2" d="M374.38,133.05l.64-1.12a6.35,6.35,0,0,0,3.74,1.18c2,0,2.82-.68,2.82-1.73,0-2.74-6.82-.58-6.82-4.74,0-1.72,1.48-3,4.16-3a7.13,7.13,0,0,1,3.72,1l-.62,1.14a5.39,5.39,0,0,0-3.1-.9c-1.9,0-2.74.74-2.74,1.74,0,2.85,6.82.7,6.82,4.75,0,1.82-1.6,3-4.34,3A7,7,0,0,1,374.38,133.05Z"/><path class="cls-2" d="M396.4,133.61a3.38,3.38,0,0,1-2.22.74,2.79,2.79,0,0,1-3.08-3.06v-6.37h-1.88v-1.2h1.88v-2.3h1.42v2.3h3.2v1.2h-3.2v6.29a1.68,1.68,0,0,0,1.82,1.92,2.35,2.35,0,0,0,1.56-.54Z"/><path class="cls-2" d="M408.66,128.14v6.11h-1.42v-6c0-2.23-1.16-3.37-3.16-3.37a3.45,3.45,0,0,0-3.68,3.8v5.53H399V119.4h1.42v6.16a4.45,4.45,0,0,1,3.94-1.92C406.9,123.64,408.66,125.12,408.66,128.14Z"/><path class="cls-2" d="M421.72,129.43h-8.8a3.9,3.9,0,0,0,4.14,3.66,4.15,4.15,0,0,0,3.22-1.38l.8.92A5.56,5.56,0,0,1,411.5,129a5.07,5.07,0,0,1,5.14-5.34,5,5,0,0,1,5.1,5.34C421.74,129.11,421.72,129.27,421.72,129.43Zm-8.8-1.06h7.46a3.74,3.74,0,0,0-7.46,0Z"/><path class="cls-2" d="M437.82,127.72v6.53h-1.36v-1.64a4,4,0,0,1-3.62,1.74c-2.38,0-3.84-1.24-3.84-3.06,0-1.62,1-3,4.06-3h3.34v-.64c0-1.8-1-2.78-3-2.78a5.36,5.36,0,0,0-3.5,1.24l-.64-1.06a6.68,6.68,0,0,1,4.28-1.42C436.28,123.64,437.82,125,437.82,127.72Zm-1.42,3.37v-1.72h-3.3c-2,0-2.7.8-2.7,1.88s1,2,2.66,2A3.37,3.37,0,0,0,436.4,131.09Z"/><path class="cls-2" d="M451.32,119.4v14.85H450v-2.08a4.56,4.56,0,0,1-4.06,2.18,5.36,5.36,0,0,1,0-10.71,4.59,4.59,0,0,1,4,2.08V119.4Zm-1.4,9.58a3.91,3.91,0,1,0-3.9,4.11A3.85,3.85,0,0,0,449.92,129Z"/><path class="cls-2" d="M464.12,123.72l-4.68,10.53H458l-4.66-10.53h1.48l3.94,9,4-9Z"/><path class="cls-2" d="M473.74,127.72v6.53h-1.36v-1.64a4,4,0,0,1-3.62,1.74c-2.38,0-3.84-1.24-3.84-3.06,0-1.62,1-3,4.06-3h3.34v-.64c0-1.8-1-2.78-3-2.78a5.36,5.36,0,0,0-3.5,1.24l-.64-1.06a6.68,6.68,0,0,1,4.28-1.42C472.2,123.64,473.74,125,473.74,127.72Zm-1.42,3.37v-1.72H469c-2,0-2.7.8-2.7,1.88s1,2,2.66,2A3.37,3.37,0,0,0,472.32,131.09Z"/><path class="cls-2" d="M487.28,128.14v6.11h-1.42v-6c0-2.23-1.16-3.37-3.16-3.37a3.45,3.45,0,0,0-3.68,3.8v5.53H477.6V123.72H479v1.94a4.42,4.42,0,0,1,4-2C485.52,123.64,487.28,125.12,487.28,128.14Z"/><path class="cls-2" d="M490.12,129a5.18,5.18,0,0,1,5.42-5.34,4.59,4.59,0,0,1,4.12,2.08l-1.06.72a3.58,3.58,0,0,0-3.06-1.56,4.11,4.11,0,0,0,0,8.21,3.54,3.54,0,0,0,3.06-1.55l1.06.73a4.64,4.64,0,0,1-4.12,2.08A5.2,5.2,0,0,1,490.12,129Z"/><path class="cls-2" d="M511.42,129.43h-8.8a3.9,3.9,0,0,0,4.14,3.66,4.15,4.15,0,0,0,3.22-1.38l.8.92A5.56,5.56,0,0,1,501.2,129a5.07,5.07,0,0,1,5.14-5.34,5,5,0,0,1,5.1,5.34C511.44,129.11,511.42,129.27,511.42,129.43Zm-8.8-1.06h7.46a3.74,3.74,0,0,0-7.46,0Z"/><path class="cls-2" d="M523.94,119.4v14.85h-1.36v-2.08a4.56,4.56,0,0,1-4.06,2.18,5.36,5.36,0,0,1,0-10.71,4.59,4.59,0,0,1,4,2.08V119.4Zm-1.4,9.58a3.91,3.91,0,1,0-3.9,4.11A3.85,3.85,0,0,0,522.54,129Z"/><path class="cls-2" d="M181.4,153a5.18,5.18,0,0,1,5.42-5.34,4.59,4.59,0,0,1,4.12,2.08l-1.06.72a3.58,3.58,0,0,0-3.06-1.56,4.11,4.11,0,0,0,0,8.21,3.54,3.54,0,0,0,3.06-1.55l1.06.73a4.64,4.64,0,0,1-4.12,2.08A5.2,5.2,0,0,1,181.4,153Z"/><path class="cls-2" d="M192.48,153a5.35,5.35,0,1,1,5.36,5.37A5.17,5.17,0,0,1,192.48,153Zm9.26,0a3.91,3.91,0,1,0-3.9,4.11A3.84,3.84,0,0,0,201.74,153Z"/><path class="cls-2" d="M215.76,152.14v6.11h-1.42v-6c0-2.23-1.16-3.37-3.16-3.37a3.45,3.45,0,0,0-3.68,3.8v5.53h-1.42V147.72h1.36v1.94a4.42,4.42,0,0,1,4-2C214,147.64,215.76,149.12,215.76,152.14Z"/><path class="cls-2" d="M228.26,147.72l-4.68,10.53h-1.46l-4.66-10.53h1.48l3.94,9,4-9Z"/><path class="cls-2" d="M239.12,153.43h-8.8a3.9,3.9,0,0,0,4.14,3.66,4.15,4.15,0,0,0,3.22-1.38l.8.92A5.56,5.56,0,0,1,228.9,153a5.07,5.07,0,0,1,5.14-5.34,5,5,0,0,1,5.1,5.34C239.14,153.11,239.12,153.27,239.12,153.43Zm-8.8-1.06h7.46a3.74,3.74,0,0,0-7.46,0Z"/><path class="cls-2" d="M247.34,147.64V149l-.34,0c-2.2,0-3.54,1.4-3.54,3.88v5.37H242V147.72h1.36v2.06A4,4,0,0,1,247.34,147.64Z"/><path class="cls-2" d="M248.52,157.05l.64-1.12a6.35,6.35,0,0,0,3.74,1.18c2,0,2.82-.68,2.82-1.73,0-2.74-6.82-.58-6.82-4.74,0-1.72,1.48-3,4.16-3a7.13,7.13,0,0,1,3.72,1l-.62,1.14a5.39,5.39,0,0,0-3.1-.9c-1.9,0-2.74.74-2.74,1.74,0,2.85,6.82.7,6.82,4.75,0,1.82-1.6,3-4.34,3A7,7,0,0,1,248.52,157.05Z"/><path class="cls-2" d="M267.7,151.72v6.53h-1.36v-1.64a4,4,0,0,1-3.62,1.74c-2.38,0-3.84-1.24-3.84-3.06,0-1.62,1-3,4.06-3h3.34v-.64c0-1.8-1-2.78-3-2.78a5.36,5.36,0,0,0-3.5,1.24l-.64-1.06a6.68,6.68,0,0,1,4.28-1.42C266.16,147.64,267.7,149,267.7,151.72Zm-1.42,3.37v-1.72H263c-2,0-2.7.8-2.7,1.88s1,2,2.66,2A3.37,3.37,0,0,0,266.28,155.09Z"/><path class="cls-2" d="M277.1,157.61a3.38,3.38,0,0,1-2.22.74,2.79,2.79,0,0,1-3.08-3.06v-6.37h-1.88v-1.2h1.88v-2.3h1.42v2.3h3.2v1.2h-3.2v6.29a1.68,1.68,0,0,0,1.82,1.92,2.35,2.35,0,0,0,1.56-.54Z"/><path class="cls-2" d="M279.36,144.4a1,1,0,0,1,1-1,1,1,0,0,1,1,1,1,1,0,0,1-2.08,0Zm.32,3.32h1.42v10.53h-1.42Z"/><path class="cls-2" d="M284,153a5.35,5.35,0,1,1,5.36,5.37A5.17,5.17,0,0,1,284,153Zm9.26,0a3.91,3.91,0,1,0-3.9,4.11A3.84,3.84,0,0,0,293.26,153Z"/><path class="cls-2" d="M307.28,152.14v6.11h-1.42v-6c0-2.23-1.16-3.37-3.16-3.37a3.45,3.45,0,0,0-3.68,3.8v5.53H297.6V147.72H299v1.94a4.42,4.42,0,0,1,4-2C305.52,147.64,307.28,149.12,307.28,152.14Z"/><path class="cls-2" d="M310.22,157.25a1.06,1.06,0,0,1,1.06-1.08,1.08,1.08,0,0,1,1.08,1.08,1.09,1.09,0,0,1-1.08,1.1A1.08,1.08,0,0,1,310.22,157.25Z"/><path class="cls-3" d="M82.4,145.35H32.1c-2.8,0-4.47-1.55-4.56-3.55v9.74A3.47,3.47,0,0,0,31,155H133.8a3.47,3.47,0,0,0,3.45-3.46V142c-.19,1.88-1.85,3.32-4.54,3.32Z"/><path class="cls-4" d="M31.74,134.2l-3.21,4.59a5,5,0,0,0-1,2.68v.33c.09,2,1.76,3.55,4.56,3.55H132.71c2.69,0,4.35-1.44,4.54-3.32a4.7,4.7,0,0,0-1-3.24l-3.21-4.59c-1.46-2.08-3.24-4.6-5.73-4.79l-1.69,0c-2.91,2.52-8.92,3.34-15.65,3.34H54c-6.73,0-12.74-.82-15.64-3.34l-.95,0C35,129.63,33.19,132.13,31.74,134.2Z"/><path class="cls-5" d="M37.9,120.77c-2.13,4-1.66,6.78.47,8.62,2.9,2.52,8.91,3.34,15.64,3.34h1.8l6.73-6.33-8-6.25C48.44,115.38,42.12,118.36,37.9,120.77Z"/><path class="cls-5" d="M109.47,120.15l-5,6.27,3.72,6.31H110c6.73,0,12.74-.82,15.65-3.34,2.13-1.84,2.6-4.6.47-8.62C121.88,118.36,117,118.31,109.47,120.15Z"/><path class="cls-6" d="M59.22,96.23c-7.88.42-10.86,4.78-14.65,11.94l-6.67,12.6c4.22-2.41,9.11-2.46,16.64-.62h54.93c7.52-1.84,12.41-1.79,16.64.62l-6.67-12.6c-3.8-7.16-6.77-11.52-14.65-11.94a16.2,16.2,0,0,1-4.64-.79l-36.38,0A16.43,16.43,0,0,1,59.22,96.23Z"/><path class="cls-7" d="M101.23,68.07c-5.31,4-3.5,7.28-.31,9.11,2.52,0,5.33-2.56,5.33-5.11v-2a2,2,0,0,0-2-2Z"/><path class="cls-7" d="M56.38,72.07c0,2.55,2.82,5.15,5.33,5.11l4-5L61.4,68.07h-3a2,2,0,0,0-2,2Z"/><path class="cls-7" d="M108.82,126.56l-.62,6.17H110c6.73,0,12.74-.82,15.65-3.34,1.83-1.58,2.43-3.84,1.22-7a7,7,0,0,1-.8.84c-2.91,2.52-8.92,3.33-15.65,3.33Z"/><path class="cls-7" d="M37.11,122.49c-1.17,3.1-.56,5.34,1.26,6.9,2.9,2.52,8.92,3.34,15.64,3.34h1.8l-.63-6.29h-1.8c-6.73,0-12.74-.82-15.64-3.34A6.08,6.08,0,0,1,37.11,122.49Z"/><path class="cls-8" d="M96.39,99.37a17.66,17.66,0,0,0,4.12.63c7.88.41,10.86,4.77,14.66,11.93l3.66,6.93a14.77,14.77,0,0,1,7.28,1.91l-6.67-12.6c-3.8-7.16-6.77-11.52-14.66-11.94a16.19,16.19,0,0,1-4.63-.79A12.64,12.64,0,0,1,96.39,99.37Z"/><path class="cls-7" d="M64.17,96c6.8,10.3,30.21,9.39,36-.58a11.5,11.5,0,0,1-4.92-3.56c-.57-.65-2.12-2.17-2.21-2.29L82.87,83.15l-12.5,7.07c-.52.52-1.24,1.26-1.59,1.66a11.48,11.48,0,0,1-5,3.59C63.88,95.66,64.05,95.83,64.17,96Z"/><path class="cls-5" d="M61.71,77.18c1,4.63,4.29,9.59,8.66,13a22.48,22.48,0,0,0,5.08,3.07q.45.19.9.36a12.73,12.73,0,0,0,10,0,22.33,22.33,0,0,0,6.72-4,23.94,23.94,0,0,0,7.9-12.41,13,13,0,0,0,.31-2.8V63.56l-18.36-5-21.47,5V74.38A13.64,13.64,0,0,0,61.71,77.18Z"/><path class="cls-7" d="M95.67,65.4V76.22a13,13,0,0,1-.31,2.8,23.88,23.88,0,0,1-7.89,12.42,24.31,24.31,0,0,1-4.6,3.11,15.93,15.93,0,0,0,3.43-.91,17.56,17.56,0,0,0,1.9-.82A23.22,23.22,0,0,0,93,89.59a23.87,23.87,0,0,0,7.9-12.41,13,13,0,0,0,.31-2.8V63.56C99.21,64.33,97.36,64.93,95.67,65.4Z"/><path class="cls-9" d="M61.4,63.56c17.39-4.69,16,9.06,39.83,0,11-8,.22-23.54-11.58-17.27-5.83,3.1-13.1-1.41-19.2,1.27S61.4,55.81,61.4,63.56Z"/><path class="cls-10" d="M88.74,46.71c9.66-.82,16.48,11.75,6.93,18.69,1.69-.47,3.54-1.07,5.56-1.84,11-8,.22-23.54-11.58-17.27A9.22,9.22,0,0,1,88.74,46.71Z"/><path class="cls-7" d="M91.61,96.36a10.81,10.81,0,0,0,4.26,2.84l.52.17a12.64,12.64,0,0,0,3.76-3.93l-.1,0a11.5,11.5,0,0,1-4.83-3.52c-.56-.65-2.11-2.17-2.2-2.29a22.33,22.33,0,0,1-6.72,4,12.73,12.73,0,0,1-10,0q-.45-.16-.9-.36a22.48,22.48,0,0,1-5.08-3.07c-.52.52-1.24,1.26-1.59,1.66-.19.22-.38.42-.57.62.55.49,1.12,1,1.7,1.4A23.51,23.51,0,0,0,75.22,97c.31.13.62.25.94.36a13.83,13.83,0,0,0,10.37,0,20.9,20.9,0,0,0,3.13-1.42C90,95.7,90.6,95.32,91.61,96.36Z"/><path class="cls-3" d="M58.54,138l-2.73-5.27H54c-6.73,0-12.74-.82-15.64-3.34l-.95,0A5.52,5.52,0,0,0,34,131.28l-.06.05c-.26.28-.51.57-.76.87C35.3,137.74,52.94,138,58.54,138Z"/><path class="cls-3" d="M105.46,138l2.74-5.27H110c6.73,0,12.74-.81,15.65-3.34h.08l1.61,0a5.61,5.61,0,0,1,3.58,2h0l0,0,0,0c.08.08,0,.42-.18.72C128.7,137.74,111.06,138,105.46,138Z"/><path class="cls-11" d="M54.54,120.15l1.27,12.58.29,2.82A2.55,2.55,0,0,0,58.54,138h46.93a2.55,2.55,0,0,0,2.44-2.44l.29-2.82,1.27-12.58,1-9.51a2.38,2.38,0,0,0-2.45-2.45H56a2.37,2.37,0,0,0-2.44,2.45Z"/><path class="cls-7" d="M76.92,123.09c0,2.43,2.27,4.41,5.08,4.41s5.09-2,5.09-4.41-2.28-4.4-5.09-4.4S76.92,120.66,76.92,123.09Z"/><path class="cls-12" d="M55.81,132.73l.29,2.82a2.58,2.58,0,0,0,.16.73A2.42,2.42,0,0,0,58.54,138h46.93a2.42,2.42,0,0,0,2.28-1.71,3,3,0,0,0,.16-.73l.29-2.82Z"/><path class="cls-13" d="M73.66,78.08A1.68,1.68,0,0,1,72,76.4V74.53a1.68,1.68,0,1,1,3.35,0V76.4A1.68,1.68,0,0,1,73.66,78.08Z"/><path class="cls-13" d="M89.2,78.08a1.68,1.68,0,0,1-1.68-1.68V74.53a1.68,1.68,0,1,1,3.36,0V76.4A1.68,1.68,0,0,1,89.2,78.08Z"/><path class="cls-2" d="M133.8,156.5H31a5,5,0,0,1-4.95-5V141.47a6.68,6.68,0,0,1,1.26-3.55l3.22-4.58c.45-.66.95-1.35,1.48-2l.06-.08.07-.08c.16-.2.35-.41.54-.62l.21-.24.1-.1.1-.09,1.12,1-1-1.07a8.81,8.81,0,0,1,.78-.69l.1-.08a8.4,8.4,0,0,1,.87-.59l.14-.07a6.81,6.81,0,0,1,.62-.29,3.39,3.39,0,0,1-.18-.39l-.06-.16c-.09-.26-.17-.53-.24-.8,0-.1,0-.17,0-.23a8.9,8.9,0,0,1-.11-.92c0-.1,0-.2,0-.3a7.86,7.86,0,0,1,0-1l0-.21a7.91,7.91,0,0,1,.17-.94l0-.24c.09-.33.2-.68.33-1a.82.82,0,0,1,.06-.19l.06-.15a17.08,17.08,0,0,1,.81-1.75l6.66-12.59C47,100.3,50.39,95.2,59.14,94.73a14.69,14.69,0,0,0,4.14-.68,10,10,0,0,0,4.37-3.16c.13-.15.31-.35.52-.56a25.74,25.74,0,0,1-7.66-11.77,7.3,7.3,0,0,1-3.55-2,6.5,6.5,0,0,1-2.08-4.5v-2a3.52,3.52,0,0,1,3.52-3.51h1.5v-3c0-8.51,3.44-14.51,9.95-17.37,3.34-1.48,6.84-1,10.22-.63s6.3.78,8.88-.59a12.27,12.27,0,0,1,16.56,4.17c2.72,4.35,2.86,10.63-2.78,15.16v2.27h1.51a3.51,3.51,0,0,1,3.51,3.51v2a6.49,6.49,0,0,1-2.07,4.5,7.38,7.38,0,0,1-3.56,2,22.51,22.51,0,0,1-2.66,5.85l-.08.13c-.14.23-.29.45-.45.67l-.33.48c-.12.17-.24.35-.37.52a27.33,27.33,0,0,1-2.49,2.89l-.21.22c-.11.12-.23.23-.34.34.44.44.89.91,1.16,1.22a12.66,12.66,0,0,0,2.14,2l.14.09.36.25.32.18.14.08c.21.11.36.19.52.26a6.23,6.23,0,0,0,.6.24l.13.06a15.09,15.09,0,0,0,4.16.68c8.75.47,12.11,5.58,15.9,12.74l6.67,12.59a16.33,16.33,0,0,1,.77,1.66l.06.13.06.19a10.24,10.24,0,0,1,.33,1l0,.12q.13.56.21,1.08l0,.23a7,7,0,0,1,0,1v.24a7.38,7.38,0,0,1-.1,1l0,.15a6.78,6.78,0,0,1-.25.88l-.06.14-.07.19.18,0a6.16,6.16,0,0,1,1.1.46l.13.07a7.63,7.63,0,0,1,.87.57l.08.06c.3.24.55.46.8.7l.07.08.32.31v0l.14.16a27.72,27.72,0,0,1,2.14,2.77l3.21,4.58a6.23,6.23,0,0,1,1.25,4.18v9.44A5,5,0,0,1,133.8,156.5ZM34.42,133.11l0,0c-.52.64-1,1.32-1.42,1.91l-3.21,4.59a3.51,3.51,0,0,0-.72,1.88v10a2,2,0,0,0,1.95,2H133.8a2,2,0,0,0,1.95-2V142a1,1,0,0,1,0-.17,3.37,3.37,0,0,0-.71-2.21h0l-3.22-4.59a24.81,24.81,0,0,0-2-2.54.27.27,0,0,1-.07-.08l-.07-.07-.13-.14-.08-.07a5.76,5.76,0,0,0-.53-.47l.48-.74.06-.14-.62.82a4.41,4.41,0,0,0-.53-.35,3.66,3.66,0,0,0-.58-.26,3.45,3.45,0,0,0-.57-.12h-1.07c-2.41,1.81-6.34,2.87-11.94,3.21q-2,.12-4.23.12a1.5,1.5,0,1,1,0-3H111c8.11-.11,11.71-1.52,13.3-2.72l.3-.22,0,0a4.26,4.26,0,0,0,.42-.43l.16.12.11,0-.19-.17.3-.41a.93.93,0,0,1,.05-.1,2.38,2.38,0,0,0,.23-.45l0-.08a3.22,3.22,0,0,0,.13-.47s0-.08,0-.1a3.88,3.88,0,0,0,.06-.53v-.13a3.47,3.47,0,0,0,0-.64l0-.16a7.47,7.47,0,0,0-.15-.74,9.22,9.22,0,0,0-.28-.88.12.12,0,0,1,0-.07l0-.06a13.53,13.53,0,0,0-.67-1.46l-6.67-12.59c-3.86-7.3-6.44-10.78-13.41-11.15a18,18,0,0,1-5-.87l-.16-.07-.68-.27-.1,0c-.19-.08-.4-.19-.61-.3l-.17-.09a5.94,5.94,0,0,1-.52-.31L97,95.49l-.24-.17a16.11,16.11,0,0,1-2.64-2.46c-.32-.37-1.07-1.13-1.57-1.63L92,90.74l-.21-.23a1.51,1.51,0,0,1,.22-2.06c.46-.39.92-.81,1.36-1.25l.2-.21a27.14,27.14,0,0,0,2.22-2.57c.1-.13.19-.27.28-.41l.38-.54c.12-.18.25-.35.36-.53l.08-.13a19,19,0,0,0,2.52-5.94,1.5,1.5,0,0,1,1.49-1.19,4,4,0,0,0,2.63-1.25,3.54,3.54,0,0,0,1.18-2.36v-2a.51.51,0,0,0-.51-.51h-3a1.5,1.5,0,0,1-1.5-1.5V63.56a1.52,1.52,0,0,1,.62-1.22c5-3.64,4.55-8.53,2.62-11.61a9.22,9.22,0,0,0-12.61-3.11C87,49.43,83.27,49,79.71,48.54c-3.12-.38-6.06-.75-8.66.39-5.91,2.6-7.72,8-8.08,12.72l.34-.07a1.5,1.5,0,0,1,.63,2.93l-1,.24v3.32a1.5,1.5,0,0,1-1.5,1.5h-3a.52.52,0,0,0-.52.51v2a3.54,3.54,0,0,0,1.18,2.36,3.93,3.93,0,0,0,2.63,1.25h0a1.5,1.5,0,0,1,1.47,1.18c.92,4.28,4,9,8.12,12.19a1.51,1.51,0,0,1,.13,2.23c-.49.49-1.2,1.22-1.52,1.58a12.8,12.8,0,0,1-5.65,4,17.48,17.48,0,0,1-5,.85c-7,.37-9.55,3.85-13.41,11.14l-6.66,12.6a13.33,13.33,0,0,0-.71,1.55l0,.08v.05a7,7,0,0,0-.25.78,1.49,1.49,0,0,0,0,.18,4.21,4.21,0,0,0-.11.6l0,.1a6,6,0,0,0,0,.67v.18a4,4,0,0,0,.06.51l0,.12a2,2,0,0,0,.13.43s0,.1,0,.12a3.93,3.93,0,0,0,.21.4l.07.11a3.91,3.91,0,0,0,.3.41l-.49.5v.08l.56-.5a4.16,4.16,0,0,0,.42.42,1.49,1.49,0,0,1,.43,1.66,1.51,1.51,0,0,1-1.41,1l-.87,0a2.67,2.67,0,0,0-.47.1l-.12,0a3.44,3.44,0,0,0-.42.2l-.11.05a5.71,5.71,0,0,0-.48.32l-1-1.1.93,1.18-.51.45-1.13-1,.38.38h0l0,.07.61.62-.55-.46,0,.14.43.42-.23.25-.46.53Zm95.8-.35h0Zm-96.17-1.5.36.35,0,0Z"/><path class="cls-14" d="M70.71,79.21a1.31,1.31,0,1,0-1.36.9A1.16,1.16,0,0,0,70.71,79.21Z"/><path class="cls-14" d="M94.59,79.21a1.31,1.31,0,1,0-1.36.9A1.16,1.16,0,0,0,94.59,79.21Z"/></g></g></svg>