<svg xmlns="http://www.w3.org/2000/svg" viewBox="0 0 48.08 40"><defs><style>.cls-1{fill:#fff;}</style></defs><title>Back</title><g id="Layer_2" data-name="Layer 2"><g id="Layer_1-2" data-name="Layer 1"><path class="cls-1" d="M.77,21.87,18.13,39.23A2.61,2.61,0,0,0,20,40a2.58,2.58,0,0,0,1.86-.77l1.58-1.57a2.62,2.62,0,0,0,.77-1.87,2.66,2.66,0,0,0-.77-1.88L13.3,23.76H45.48a2.57,2.57,0,0,0,2.6-2.59V18.94a2.67,2.67,0,0,0-2.6-2.7H13.19L23.43,6a2.6,2.6,0,0,0,0-3.69L21.85.77A2.58,2.58,0,0,0,20,0a2.61,2.61,0,0,0-1.86.77L.77,18.13a2.66,2.66,0,0,0,0,3.74Z"/></g></g></svg>