<svg xmlns="http://www.w3.org/2000/svg" viewBox="0 0 435.16 450.74"><defs><style>.cls-1{fill:#e2fbff;}.cls-2{fill:#f2f2f2;}.cls-3{fill:#852d12;}.cls-4{fill:#e6e6e6;}.cls-5{fill:#f4bc9d;}.cls-6{fill:#fff;}.cls-7{fill:#3fa9f5;}.cls-8{fill:#ffdfc7;}.cls-9{fill:#b23c18;}.cls-10{fill:#603813;}.cls-11{fill:#ff7bac;}.cls-12{fill:#666;}.cls-13{fill:#4d4d4d;}.cls-14{fill:#537f85;}.cls-15{fill:#6ea9b2;}.cls-16{fill:#b6f5ff;}.cls-17{fill:#89b8bf;}.cls-18{fill:#a67c52;}.cls-19{fill:#c69c6d;}.cls-20{fill:#8c6239;}.cls-21{fill:#fbb03b;}.cls-22{fill:#ff1d25;}.cls-23{fill:#0071bc;}.cls-24{fill:#00558d;}.cls-25{fill:#bc842c;}.cls-26{fill:#333;}.cls-27{fill:#b3b3b3;}.cls-28{fill:#ccc;}.cls-29{fill:#bf161c;}.cls-30{fill:#0a3190;}.cls-31{fill:#00a7ea;}.cls-32{fill:#7b090b;}.cls-33{fill:#266850;}.cls-34{fill:#fcee21;}</style></defs><title>Illustration</title><g id="Layer_2" data-name="Layer 2"><g id="Layer_1-2" data-name="Layer 1"><path class="cls-1" d="M298.57,36.67c15-1.33,30.43-5.89,44.84-1,19.33,6.54,31,27.83,40.89,47.46,7.28,14.47,14.79,30,13.94,46.53-.82,15.74-9.1,29.7-17.91,42-4.53,6.35-9.4,12.61-15.67,16.73-10.65,7-23.72,6.83-36.07,7.38-57.08,2.52-113.77,24.2-170.3,15a122.24,122.24,0,0,1-19.86-4.8,203.6,203.6,0,0,1-19.62-8.17l-23-10.52c-11.81-5.4-23.74-10.87-34.16-19.1s-19.34-19.6-22.76-33.32c-2.53-10.12-1.94-20.85-.91-31.29.56-5.72,1.28-11.54,3.53-16.72C46.59,75.13,58.52,69,70,66.47s23.49-2.36,34.74-6.07C118.39,55.9,130,46.05,143,39.68,174.6,24.2,210.9,30.34,244.9,36.76,244.9,36.76,281.15,38.21,298.57,36.67Z"/><path class="cls-2" d="M111.15,267.91a144.69,144.69,0,0,1,42-12.4c13.31-1.85,26.86-1.91,40.35-2L321.67,253c14.85-.06,29.95-.09,44.19,3.47,25.71,6.42,46,24.29,57,45s13.43,44,11.91,66.63c-.88,13.13-3.49,27.07-13.88,36.86-5.18,4.88-11.93,8.36-18.87,11.29a167.1,167.1,0,0,1-68.14,12.82c-15-.33-30-2.64-45-1.72-23.77,1.45-45.73,10.86-68.85,15.78-33,7-67.74,4.74-101.59,1.54-21.63-2-43.48-4.5-63.67-11.35s-38.86-18.6-48.49-35.1-8.53-38.08,6.05-51.74c6.42-6,15-10.23,21.23-16.34,15-14.59,15.6-38.21,34.09-49.57C82.31,271.56,111.15,267.91,111.15,267.91Z"/><ellipse class="cls-3" cx="254.64" cy="109.13" rx="7.86" ry="7.26"/><path class="cls-4" d="M260.79,142.12c2.22,2.62,5.59-4.56,5.59-4.56S258.57,139.51,260.79,142.12Z"/><path class="cls-4" d="M249.1,140.13c-.44.23-.81.37-.91,1.41-.07.66.24.78.68,1,4.95,2.86,11.19.35,11.93.16.93-.24.78-1.06.08-1.07C254,141.24,251.66,139.58,249.1,140.13Z"/><rect class="cls-5" x="250.12" y="136.22" width="9.4" height="13.5"/><path class="cls-6" d="M274.81,164.85s-.93-15.74-3.48-16.38c-.7-.5-10.77-4.7-11.09-4.76h0c-.3-.05-.57-.22-.78,0l-4.11,4.82a.83.83,0,0,1-.55.27.81.81,0,0,1-.55-.27l-4.12-4.82c-.2-.22-.47-.05-.77,0h0c-.32.06-10.39,4.26-11.1,4.76-2.56.71-3.48,16.38-3.48,16.38Z"/><path class="cls-2" d="M275,165.07H234.53v-.23c.1-1.61,1-15.73,3.61-16.57.94-.59,10.77-4.7,11.15-4.77l.21-.05a.68.68,0,0,1,.77.12l4.12,4.82a.61.61,0,0,0,.39.2.73.73,0,0,0,.39-.2l4.11-4.82a.69.69,0,0,1,.77-.12l.2.05c.39.07,10.21,4.17,11.16,4.77,2.6.79,3.51,14.95,3.61,16.57ZM235,164.64h39.6c-.39-6.26-1.57-15.52-3.31-16l-.07,0c-.63-.44-10.53-4.59-11-4.72a.94.94,0,0,1-.24-.06c-.23-.06-.29-.06-.34,0l-4.11,4.81a1.12,1.12,0,0,1-.69.35h-.05a1.14,1.14,0,0,1-.68-.34L250,143.85c-.05,0-.1,0-.33,0a1,1,0,0,1-.25.06c-.48.13-10.38,4.28-11,4.72l-.06,0C236.55,149.16,235.37,158.4,235,164.64Z"/><path class="cls-7" d="M255.12,146.91l3.76,2.9a.24.24,0,0,0,.38-.13l1.65-5.67a.24.24,0,0,0,0-.2l-1-.79a.25.25,0,0,0-.39,0l-4.43,3.56A.25.25,0,0,0,255.12,146.91Z"/><path class="cls-7" d="M254.62,146.91l-3.75,2.9a.24.24,0,0,1-.38-.13L248.84,144a.24.24,0,0,1,0-.2l.87-.79a.24.24,0,0,1,.38,0l4.53,3.56A.24.24,0,0,1,254.62,146.91Z"/><path class="cls-6" d="M248.84,140.58a1.52,1.52,0,0,0,0,2.57c4.95,2.86,11.19.35,11.93.16.93-.24.78-1.06.08-1.07C254,141.88,251.4,140,248.84,140.58Z"/><path class="cls-2" d="M254.32,144.72a10.91,10.91,0,0,1-5.55-1.38,1.76,1.76,0,0,1-.84-1.51,1.49,1.49,0,0,1,.81-1.44l0,0a9.85,9.85,0,0,1,4.37.46,39.82,39.82,0,0,0,7.73,1.2.72.72,0,0,1,.77.6c0,.3-.15.72-.81.88l-.35.11A19.85,19.85,0,0,1,254.32,144.72Zm-5.41-3.94a1.09,1.09,0,0,0-.55,1A1.35,1.35,0,0,0,249,143c2.93,1.69,6.76,1.77,11.41.26l.37-.12c.37-.09.51-.28.49-.42s-.12-.22-.35-.22a40.42,40.42,0,0,1-7.82-1.21A9.9,9.9,0,0,0,248.91,140.78Z"/><path class="cls-8" d="M269.64,126.74a3.27,3.27,0,1,1-3.26-3.27A3.26,3.26,0,0,1,269.64,126.74Z"/><path class="cls-5" d="M268.23,126.74a1.86,1.86,0,1,1-1.85-1.86A1.85,1.85,0,0,1,268.23,126.74Z"/><path class="cls-8" d="M246.77,126.74a3.27,3.27,0,1,1-3.26-3.27A3.26,3.26,0,0,1,246.77,126.74Z"/><path class="cls-5" d="M245.36,126.74a1.86,1.86,0,1,1-1.85-1.86A1.85,1.85,0,0,1,245.36,126.74Z"/><path class="cls-8" d="M247.26,137.25a10,10,0,0,0,14.79.28c7.55-7.86,4.35-18.94,4.35-18.94s-.57-7.79-11.33-7.79a11.86,11.86,0,0,0-11.7,8S240.59,129.63,247.26,137.25Z"/><path class="cls-9" d="M242,123.83c1.13-.25,2.2,1.46,2.2,1.46l.47-8.24,20,0s1,9,.95,8.67c.59-2.32,2.07-1.72,2.07-1.72s3.7-16.9-12.85-16.9S242,123.36,242,123.83Z"/><rect class="cls-7" x="253.12" y="148.59" width="3.5" height="16.39"/><path class="cls-7" d="M252.53,146.71h4.67c.29,0,.43,1.68.23,1.88l-2.33,1.78a.32.32,0,0,1-.47,0l-2.34-1.77C252.1,148.37,252.25,146.71,252.53,146.71Z"/><path class="cls-6" d="M261.21,142.67c.38,3.41,7.19-.66,7.19-.66S260.83,139.26,261.21,142.67Z"/><path class="cls-2" d="M262.88,144.24a2.37,2.37,0,0,1-1-.2,1.59,1.59,0,0,1-.85-1.35h0a1.5,1.5,0,0,1,.53-1.46c1.67-1.32,6.72.5,6.94.57l.42.16-.38.23C268.34,142.29,265.05,144.24,262.88,144.24Zm-1.46-1.59a1.18,1.18,0,0,0,.62,1c1.42.7,4.68-1,5.84-1.6-1.65-.54-5-1.36-6.09-.49a1.14,1.14,0,0,0-.37,1.09Z"/><circle class="cls-7" cx="263.13" cy="141.75" r="0.35"/><circle class="cls-7" cx="264.9" cy="142.5" r="0.35"/><circle class="cls-7" cx="258.32" cy="143.19" r="0.35"/><circle class="cls-7" cx="252.29" cy="143.31" r="0.35"/><circle class="cls-7" cx="255.89" cy="142.7" r="0.35"/><circle class="cls-7" cx="250.12" cy="141.94" r="0.35"/><polygon class="cls-7" points="241.65 164.85 234.76 164.85 235.05 161.21 241.65 161.21 241.65 164.85"/><polygon class="cls-7" points="267.93 164.85 274.81 164.85 274.52 161.21 267.93 161.21 267.93 164.85"/><path class="cls-10" d="M248.77,127.91a1,1,0,0,0-.76.36.41.41,0,0,1-.25-.31.41.41,0,1,0-.81,0,1.4,1.4,0,0,0,.67,1,2.35,2.35,0,0,0-.07.54c0,.89.55,1.62,1.22,1.62s1.21-.73,1.21-1.62S249.43,127.91,248.77,127.91Z"/><path class="cls-10" d="M262.7,127.69a.41.41,0,0,0-.4.4.4.4,0,0,1-.25.31,1,1,0,0,0-.76-.35c-.67,0-1.21.72-1.21,1.62s.54,1.61,1.21,1.61a1.46,1.46,0,0,0,1.22-1.61,2.36,2.36,0,0,0-.07-.55,1.38,1.38,0,0,0,.67-1A.41.41,0,0,0,262.7,127.69Z"/><path class="cls-10" d="M255.66,131.12a.43.43,0,0,0,0-.57.41.41,0,0,0-.57,0,.55.55,0,0,1-.91,0c-.34-.39-.91.19-.57.58A1.35,1.35,0,0,0,255.66,131.12Z"/><path class="cls-10" d="M257.46,134.38c.27-.44-.43-.85-.7-.41a2.22,2.22,0,0,1-4-.11c-.2-.48-.9-.07-.69.41C253.08,136.64,256.21,136.44,257.46,134.38Z"/><path class="cls-10" d="M247,126.48a1.51,1.51,0,0,1,2.4,0,.41.41,0,0,0,.7-.41,2.33,2.33,0,0,0-3.8,0C246,126.52,246.67,126.92,247,126.48Z"/><path class="cls-10" d="M260.69,126.48a1.51,1.51,0,0,1,2.4,0,.41.41,0,0,0,.7-.41,2.33,2.33,0,0,0-3.8,0C259.71,126.52,260.41,126.92,260.69,126.48Z"/><circle class="cls-11" cx="246.93" cy="133.25" r="1.63"/><path class="cls-11" d="M264.24,133.25a1.63,1.63,0,1,1-1.63-1.64A1.63,1.63,0,0,1,264.24,133.25Z"/><path class="cls-9" d="M251.16,112.73s-1.49,10.66-6.95,12.56l-1.42-4.35,1.19-5.69Z"/><path class="cls-9" d="M249.77,116.38s1.35,7.91,15.87,9.31v-5.87l-1.09-5.4-5.89-.76Z"/><path class="cls-9" d="M268.05,121.08a9.16,9.16,0,0,1-1.32,5.17s-12.34.16-16.66-8.94l9.25-2Z"/><rect class="cls-8" x="277.86" y="149.69" width="5.33" height="26.68" rx="2.3" transform="matrix(0.97, 0.25, -0.25, 0.97, 50.5, -65.79)"/><path class="cls-12" d="M137.73,204.76h67.88a0,0,0,0,1,0,0v10.35a0,0,0,0,1,0,0H128.8a0,0,0,0,1,0,0V213.7A8.94,8.94,0,0,1,137.73,204.76Z"/><path class="cls-13" d="M128.8,215.11h76.81a0,0,0,0,1,0,0V222a0,0,0,0,1,0,0H134.72A5.92,5.92,0,0,1,128.8,216v-.93A0,0,0,0,1,128.8,215.11Z"/><path class="cls-14" d="M230.35,222h74.51a2.14,2.14,0,0,0,2.15-2.14V174.55H274.87Z"/><path class="cls-15" d="M203,174.55v45.27A2.14,2.14,0,0,0,205.1,222h25.25l44.52-47.41Z"/><path class="cls-16" d="M284,164.85H202.3a2.15,2.15,0,0,0-2.14,2.15v5.4a2.14,2.14,0,0,0,2.14,2.15h72.57Z"/><path class="cls-17" d="M307.29,164.85H284l-9.11,9.7h32.42a2.14,2.14,0,0,0,2.14-2.15V167A2.15,2.15,0,0,0,307.29,164.85Z"/><path class="cls-6" d="M234,198.83a3.55,3.55,0,0,1,6.16-2.19l-1,.88a2.06,2.06,0,0,0-1.62-.75,2.07,2.07,0,1,0,0,4.13,2.05,2.05,0,0,0,1.62-.77l1,.89a3.55,3.55,0,0,1-6.16-2.19Z"/><path class="cls-6" d="M246.17,199.22v2.84h-1.44v-2.62c0-.8-.37-1.17-1-1.17s-1.19.42-1.19,1.34v2.45h-1.44v-6.84h1.44v2.39a2.22,2.22,0,0,1,1.58-.59A2,2,0,0,1,246.17,199.22Z"/><path class="cls-6" d="M252.36,200H248.6a1.33,1.33,0,0,0,1.42,1,1.7,1.7,0,0,0,1.25-.48l.76.83a2.9,2.9,0,0,1-4.88-1.75A2.53,2.53,0,0,1,249.8,197a2.46,2.46,0,0,1,2.58,2.58C252.38,199.71,252.36,199.87,252.36,200Zm-3.78-.84H251a1.24,1.24,0,0,0-2.45,0Z"/><path class="cls-6" d="M253,199.58a2.57,2.57,0,0,1,2.77-2.56,2.28,2.28,0,0,1,2.22,1.27l-1.11.6a1.25,1.25,0,0,0-1.12-.68,1.37,1.37,0,0,0,0,2.74,1.23,1.23,0,0,0,1.12-.68l1.11.61a2.3,2.3,0,0,1-2.22,1.25A2.56,2.56,0,0,1,253,199.58Z"/><path class="cls-6" d="M260.88,200.11l-.69.69v1.26h-1.44v-6.84h1.44v3.87l2.11-2H264L262,199.2l2.25,2.86h-1.75Z"/><path class="cls-6" d="M267.55,195.6h1.5v6.46h-1.5Z"/><path class="cls-6" d="M275.55,199.22v2.84h-1.44v-2.62c0-.8-.37-1.17-1-1.17s-1.19.42-1.19,1.34v2.45h-1.43v-5h1.37v.58a2.2,2.2,0,0,1,1.64-.66A2,2,0,0,1,275.55,199.22Z"/><path class="cls-6" d="M282.67,206.6H225.41V190.69h57.26Zm-56.83-.43h56.4v-15h-56.4Z"/><rect class="cls-18" x="145.33" y="185.09" width="29.59" height="19.67"/><polygon class="cls-19" points="174.92 185.09 145.33 185.09 151.91 179.96 181.51 179.96 174.92 185.09"/><polygon class="cls-20" points="181.51 204.76 174.92 204.76 174.92 185.09 181.51 179.96 181.51 204.76"/><path class="cls-6" d="M164.58,191.62a.25.25,0,0,0-.23-.15h-8.44a.27.27,0,0,0-.24.15.26.26,0,0,0,0,.28l1.4,1.69,2.75,3.3v3h-1.42a.25.25,0,0,0-.26.26.26.26,0,0,0,.26.26h3.38a.26.26,0,0,0,.26-.26.26.26,0,0,0-.26-.26h-1.43v-3l2.75-3.3,1.41-1.69A.26.26,0,0,0,164.58,191.62Zm-1.76,1.54h-5.38l-1-1.17h7.32Z"/><polygon class="cls-5" points="213.76 199.56 202.08 199.56 203.63 190.12 212.21 190.12 213.76 199.56"/><path class="cls-21" d="M237,234.83h1.12a0,0,0,0,1,0,0V251a0,0,0,0,1,0,0H231.8a1.84,1.84,0,0,1-1.84-1.84v-7.24A7.08,7.08,0,0,1,237,234.83Z" transform="translate(468.12 485.82) rotate(-180)"/><path class="cls-12" d="M238.7,308.63h2.61a0,0,0,0,1,0,0v19.24a0,0,0,0,1,0,0h-.56a3.54,3.54,0,0,1-3.54-3.54V310.11A1.48,1.48,0,0,1,238.7,308.63Z"/><path class="cls-12" d="M286.89,308.63h.56a0,0,0,0,1,0,0v19.24a0,0,0,0,1,0,0h-2.61a1.48,1.48,0,0,1-1.48-1.48V312.16A3.54,3.54,0,0,1,286.89,308.63Z" transform="translate(570.81 636.49) rotate(-180)"/><path class="cls-6" d="M218.38,341h21.68a0,0,0,0,1,0,0v3.53a5,5,0,0,1-5,5H223.38a5,5,0,0,1-5-5V341A0,0,0,0,1,218.38,341Z"/><path class="cls-6" d="M183.31,341H195a5,5,0,0,1,5,5v3.53a0,0,0,0,1,0,0H178.31a0,0,0,0,1,0,0V346a5,5,0,0,1,5-5Z" transform="translate(378.29 690.59) rotate(-180)"/><path class="cls-22" d="M227.49,330.21H231a9.11,9.11,0,0,1,9.11,9.11v2a3.5,3.5,0,0,1-3.5,3.5H221.88a3.5,3.5,0,0,1-3.5-3.5v-2A9.11,9.11,0,0,1,227.49,330.21Z"/><polygon class="cls-8" points="221.18 330.21 220.2 293.2 232.23 293.2 236.15 330.21 221.18 330.21"/><path class="cls-22" d="M181.8,330.21h14.68a3.5,3.5,0,0,1,3.5,3.5v2a9.11,9.11,0,0,1-9.11,9.11h-3.46a9.11,9.11,0,0,1-9.11-9.11v-2A3.5,3.5,0,0,1,181.8,330.21Z" transform="translate(378.29 675.02) rotate(-180)"/><polygon class="cls-8" points="197.19 330.21 198.17 293.2 186.14 293.2 182.22 330.21 197.19 330.21"/><path class="cls-22" d="M192.44,199.56s-15.21-2-15.21,24.13h8.65Z"/><path class="cls-22" d="M223.37,199.56s15.22-2,15.22,24.13h-8.65Z"/><path class="cls-8" d="M179.28,223.69h8.42a0,0,0,0,1,0,0V275a0,0,0,0,1,0,0h-1.15a7.27,7.27,0,0,1-7.27-7.27v-44A0,0,0,0,1,179.28,223.69Z"/><polygon class="cls-23" points="204.3 289.7 180.06 289.7 187.13 255.41 211.37 255.41 204.3 289.7"/><polygon class="cls-23" points="211.55 289.7 235.79 289.7 228.73 255.41 204.49 255.41 211.55 289.7"/><rect class="cls-7" x="178.49" y="289.7" width="27.69" height="3.5" rx="1.51"/><rect class="cls-7" x="209.53" y="289.7" width="27.69" height="3.5" rx="1.51"/><rect class="cls-22" x="187.13" y="221.45" width="41.05" height="33.96"/><path class="cls-24" d="M229.41,259.2H186a.43.43,0,0,1-.43-.43.43.43,0,0,1,.43-.43h43.43a.43.43,0,0,1,.43.43A.43.43,0,0,1,229.41,259.2Z"/><rect class="cls-13" x="181.84" y="252.43" width="8.27" height="12.68" rx="3.57" transform="translate(237.45 -55.71) rotate(45)"/><rect class="cls-13" x="225.28" y="252.43" width="8.27" height="12.68" rx="3.57" transform="translate(574.61 279.53) rotate(135)"/><rect class="cls-5" x="250.05" y="246.03" width="17.25" height="8.24" rx="3.56"/><path class="cls-13" d="M280.26,279.35H244.41v-27a7.32,7.32,0,0,1,7.32-7.31h21.21a7.32,7.32,0,0,1,7.32,7.31Zm-31.56-4.29H276V252.37a3,3,0,0,0-3-3H251.73a3,3,0,0,0-3,3Z"/><rect class="cls-13" x="241.31" y="277.21" width="42.05" height="55.54" rx="9.33"/><path class="cls-12" d="M247.21,332.75h8.25a0,0,0,0,1,0,0v6a3.56,3.56,0,0,1-3.56,3.56h-1.12a3.56,3.56,0,0,1-3.56-3.56v-6A0,0,0,0,1,247.21,332.75Z"/><path class="cls-12" d="M268.94,332.75h8.25a0,0,0,0,1,0,0v6a3.56,3.56,0,0,1-3.56,3.56H272.5a3.56,3.56,0,0,1-3.56-3.56v-6A0,0,0,0,1,268.94,332.75Z"/><rect class="cls-12" x="248.42" y="301.97" width="27.25" height="25.23" rx="5"/><rect class="cls-12" x="248.42" y="286.97" width="27.25" height="7.69" rx="3.32"/><rect class="cls-25" x="185.88" y="208.13" width="44.08" height="47.07" rx="9"/><rect class="cls-21" x="183.88" y="199.56" width="48.08" height="17.13" rx="7.4"/><rect class="cls-21" x="195.46" y="226.14" width="27.41" height="24.79" rx="10.71"/><path class="cls-13" d="M202.08,199.53H188.94l.47-2.88a1.29,1.29,0,0,1,1.27-1.08h12Z"/><path class="cls-13" d="M213.74,199.53h13.14l-.47-2.88a1.29,1.29,0,0,0-1.27-1.08h-12Z"/><rect class="cls-8" x="187.7" y="144.1" width="42.93" height="49.8" rx="18.54"/><rect class="cls-8" x="185.13" y="167.49" width="4.72" height="9.02" rx="2.04"/><rect class="cls-8" x="230.85" y="167.49" width="4.72" height="9.02" rx="2.04"/><path class="cls-26" d="M181.91,130.57s-.86,15.89,4.29,21.47c0,0-5.15-1.72-5.58-4.3,0,0-3,9.88,0,15s7.3,12.88,8.58,16.74.43,12.88,15,12.88,27.9,6,28.76-15.88c.76-19.43.86-22.33,1.72-25.33s-2.58-12.88-12.88-15.89a9.94,9.94,0,0,0,1.29,6S204.23,130.14,181.91,130.57Z"/><path class="cls-26" d="M231.87,169.93s5.59-11.56,6.15-17.43c0,0-6.33,4.1-7.17,1.49S231.87,169.93,231.87,169.93Z"/><rect class="cls-23" x="202.12" y="269.84" width="11.28" height="7.93"/><path class="cls-21" d="M179.53,234.83h6.35a0,0,0,0,1,0,0V251a0,0,0,0,1,0,0h-1.12a7.08,7.08,0,0,1-7.08-7.08v-7.24A1.84,1.84,0,0,1,179.53,234.83Z"/><polygon class="cls-8" points="258.95 247.2 250.53 247.2 229.96 223.69 238.38 223.69 258.95 247.2"/><rect class="cls-8" x="254.29" y="239.98" width="18.74" height="12.09" rx="5.22"/><rect class="cls-6" x="221.18" y="324.29" width="14.97" height="11.85" rx="5.12"/><rect class="cls-6" x="182.22" y="324.29" width="14.97" height="11.85" rx="5.12" transform="translate(379.41 660.42) rotate(180)"/><polyline class="cls-6" points="186.36 329.44 189.32 332.4 193.71 328.02"/><path class="cls-26" d="M189.32,333.05a.67.67,0,0,1-.45-.19l-3-3a.64.64,0,0,1,.91-.91l2.5,2.5,3.94-3.93a.64.64,0,1,1,.91.91l-4.39,4.39A.68.68,0,0,1,189.32,333.05Z"/><polyline class="cls-6" points="225.55 329.44 228.51 332.4 232.9 328.02"/><path class="cls-26" d="M228.51,333.05a.65.65,0,0,1-.45-.19l-3-3A.64.64,0,0,1,226,329l2.51,2.5,3.93-3.93a.64.64,0,1,1,.91.91L229,332.86A.68.68,0,0,1,228.51,333.05Z"/><rect class="cls-24" x="198.9" y="269.84" width="18.03" height="3.96" rx="1.71"/><rect class="cls-25" x="190.27" y="205.61" width="35.3" height="5.04" rx="2.17"/><path class="cls-25" d="M183.88,238.25h-3.82a.86.86,0,1,1,0-1.72h3.82a.86.86,0,0,1,0,1.72Z"/><path class="cls-25" d="M236,238.25h-3.82a.86.86,0,0,1,0-1.72H236a.86.86,0,0,1,0,1.72Z"/><circle class="cls-27" cx="120.06" cy="295.98" r="7.93"/><rect class="cls-28" x="115.95" y="227.85" width="8.24" height="70.88" rx="3.56"/><path class="cls-22" d="M120.07,241.74a1.28,1.28,0,0,0-2.41-.62L35.58,388.84v18l84.49-153Z"/><path class="cls-29" d="M35.58,406.82v13.35L119.91,268.4a1.28,1.28,0,0,0,.16-.63v-14Z"/><circle class="cls-27" cx="35.58" cy="442.81" r="7.93"/><rect class="cls-28" x="31.48" y="374.67" width="8.24" height="70.88" rx="3.56"/><circle class="cls-27" cx="315.32" cy="295.98" r="7.93"/><rect class="cls-28" x="311.19" y="227.85" width="8.24" height="70.88" rx="3.56" transform="translate(630.62 526.58) rotate(-180)"/><path class="cls-22" d="M315.31,241.74a1.28,1.28,0,0,1,2.41-.62L399.8,388.84v18l-84.49-153Z"/><path class="cls-29" d="M399.8,406.82v13.35L315.47,268.4a1.28,1.28,0,0,1-.16-.63v-14Z"/><circle class="cls-27" cx="399.8" cy="442.81" r="7.93"/><rect class="cls-28" x="395.67" y="374.67" width="8.24" height="70.88" rx="3.56" transform="translate(799.57 820.23) rotate(-180)"/><rect class="cls-4" x="125.94" y="9.32" width="174.19" height="68.91"/><path class="cls-30" d="M236.45,61.7a.88.88,0,0,1,.16-.32l20.81-36.25.16-.28a.69.69,0,0,1,.35,0h23.64c.24,0,.14.13.09.23-.2.38-.42.75-.64,1.12l-5.15,9c-1.54,2.66-3.07,5.34-4.6,8L266.77,51q-2,3.42-3.94,6.84c-.7,1.2-1.38,2.42-2.09,3.63a.66.66,0,0,1-.17.24Z"/><path class="cls-30" d="M177.9,61.7a8.91,8.91,0,0,0,.23-1.12c.51-2.76,1-5.51,1.51-8.27l1.44-7.87,1.44-7.87,1.2-6.57c.07-.41,0-.33.38-.33h10.35c.37,0,.3,0,.39.3q2.31,8,4.6,16l2.42,8.39a1.36,1.36,0,0,0,.18.43.48.48,0,0,0,.88-.07,1.21,1.21,0,0,0,.09-.34q1.13-6.14,2.26-12.27t2.2-12c.08-.44.08-.44.51-.44H212a.74.74,0,0,1,.33,0,5.31,5.31,0,0,1-.13.89L210.73,39c-.54,3-1.07,6.06-1.61,9.09l-1.62,9.08c-.26,1.45-.51,2.89-.77,4.33a1.09,1.09,0,0,0,0,.18H195.45a1,1,0,0,1-.17-.43c-.8-2.84-1.61-5.67-2.41-8.5-1.43-5.06-2.88-10.12-4.31-15.18a3.58,3.58,0,0,0-.19-.58c-.09-.2-.22-.37-.46-.36s-.3.2-.38.37a1.14,1.14,0,0,0-.1.36q-1.11,6.12-2.2,12.24c-.66,3.71-1.33,7.41-2,11.12a2.52,2.52,0,0,1-.24,1Z"/><path class="cls-30" d="M145.21,61.7q9.24-15.89,18.47-31.76a.47.47,0,0,1,.48-.27h10.07c.36,0,.31,0,.33.31l.33,4.83c.06,1,.13,1.93.19,2.89.09,1.38.19,2.75.28,4.13.06,1,.12,1.91.19,2.87.09,1.38.19,2.77.28,4.15.06,1,.13,2,.19,3,.09,1.35.19,2.71.28,4.06l.18,2.67.18,2.8c0,.12,0,.24,0,.36h-8a2.43,2.43,0,0,1-.14-.92c0-.92-.08-1.83-.13-2.75a1.26,1.26,0,0,0-1.17-1.18h-12c-.6,0-.63,0-.33-.54.76-1.3,1.54-2.59,2.3-3.89a.63.63,0,0,1,.64-.31h8.59a3,3,0,0,0,.73-.08.78.78,0,0,0,.63-.81c0-1-.1-2-.15-3.07,0-.73-.09-1.46-.14-2.19s-.11-1.65-.16-2.48-.09-1.44-.13-2.16-.11-1.7-.16-2.54-.09-1.43-.14-2.14a1.21,1.21,0,0,0-.16-.59A.49.49,0,0,0,166,36a2.91,2.91,0,0,0-.32.46q-2.26,3.87-4.55,7.73-4.16,7.08-8.33,14.16l-1.83,3.11a.59.59,0,0,1-.25.27Z"/><path class="cls-31" d="M287.56,24.85c0,.09,0,.15-.08.21q-3.28,5.75-6.58,11.47l-7.64,13.29q-3.4,5.94-6.82,11.88h-5.87a2.49,2.49,0,0,1,.32-.63c.93-1.63,1.88-3.26,2.82-4.9L266.1,52c.78-1.36,1.57-2.72,2.35-4.09l2.15-3.73,2.15-3.77,2.18-3.78,2.4-4.17,2.08-3.63,2.27-4c.06-.06.13,0,.2,0h5.51A.25.25,0,0,1,287.56,24.85Z"/><path class="cls-30" d="M219.28,29.67h4.05c.44,0,.44,0,.36.44l-2.13,12q-1.09,6.13-2.2,12.28a1.25,1.25,0,0,0,0,.33c0,.41.47.44.85.07a2.3,2.3,0,0,0,.34-.43L226,45.93l10.39-16c.21-.32.12-.3.49-.3H245l-20.71,32H213a1.21,1.21,0,0,0,0-.18c.27-1.44.54-2.88.8-4.33l1.68-9.08L217.2,39l1.56-8.43a5.85,5.85,0,0,1,.18-.89A.84.84,0,0,1,219.28,29.67Z"/><polygon class="cls-2" points="300.13 9.32 125.94 9.32 135.25 0.03 309.44 0.03 300.13 9.32"/><polygon class="cls-28" points="309.41 0 309.41 68.9 300.13 78.23 300.13 9.33 309.41 0"/><circle class="cls-6" cx="294.39" cy="115.41" r="20.69"/><circle class="cls-6" cx="319.48" cy="147.46" r="17.27"/><rect class="cls-32" x="289.2" y="104.72" width="16.85" height="22.41" rx="3" transform="translate(42.33 -76.02) rotate(15.66)"/><path class="cls-6" d="M297.62,121a5,5,0,0,1-1.36-.19,5,5,0,1,1,5.76-7.33,5,5,0,0,1,.46,3.83h0A5,5,0,0,1,297.62,121Zm0-9.59a4.49,4.49,0,0,0-2.22.58,4.54,4.54,0,1,0,6.6,5.19h0a4.54,4.54,0,0,0-3.15-5.6A4.35,4.35,0,0,0,297.62,111.39Z"/><path class="cls-6" d="M296.81,120.86a2,2,0,0,1-.55-.07,2.69,2.69,0,0,1-1.72-2.07,7.63,7.63,0,0,1,1.9-6.78,2.37,2.37,0,0,1,4.27,1.2,7,7,0,0,1-.12,3.62C299.91,119.19,298.32,120.86,296.81,120.86Zm1.64-9.36a2.5,2.5,0,0,0-1.66.81,7,7,0,0,0-1.76,6.28,2.17,2.17,0,0,0,1.37,1.71c1.37.39,3-1.26,3.71-3.67h0a6.56,6.56,0,0,0,.11-3.36,2.19,2.19,0,0,0-1.37-1.71A1.34,1.34,0,0,0,298.45,111.5Z"/><rect class="cls-6" x="292.83" y="115.68" width="9.59" height="0.5" transform="translate(105.7 371.24) rotate(-74.35)"/><rect class="cls-6" x="297.37" y="111.14" width="0.5" height="9.59" transform="translate(105.67 371.22) rotate(-74.34)"/><rect class="cls-6" x="298.07" y="109.4" width="0.5" height="8.06" transform="translate(108.59 370.08) rotate(-74.34)"/><rect class="cls-6" x="296.67" y="114.4" width="0.5" height="8.06" transform="translate(102.76 372.37) rotate(-74.34)"/><path class="cls-6" d="M294.75,107l-.27-.08-.14.48a.12.12,0,0,1-.15.09.12.12,0,0,1-.09-.15l.37-1.32a.12.12,0,0,1,.15-.09h0l.4.12a.49.49,0,0,1,.35.61A.51.51,0,0,1,294.75,107Zm-.2-.33.27.08a.24.24,0,0,0,.3-.16.25.25,0,0,0-.17-.3l-.27-.07Z"/><path class="cls-6" d="M296.1,107.61l-.54-.15-.19.26a.15.15,0,0,1-.14,0l0,0a.13.13,0,0,1,0-.18l.85-1.18a.13.13,0,0,1,.14,0,.12.12,0,0,1,.1.11l.12,1.45a.12.12,0,0,1-.11.14h0a.11.11,0,0,1-.09-.11Zm0-.27-.05-.53-.31.43Z"/><path class="cls-6" d="M296.66,107.75a.13.13,0,0,1,.17,0,.75.75,0,0,0,.38.29.51.51,0,0,0,.3,0c.08,0,.13-.08.14-.14a.11.11,0,0,0,0-.08.25.25,0,0,0,0-.08.89.89,0,0,0-.27-.19h0a1.3,1.3,0,0,1-.26-.17.53.53,0,0,1-.16-.23.34.34,0,0,1,0-.2.43.43,0,0,1,.27-.27.67.67,0,0,1,.42,0,.92.92,0,0,1,.43.31.12.12,0,0,1,0,.17.12.12,0,0,1-.17,0,.68.68,0,0,0-.31-.25.52.52,0,0,0-.28,0,.18.18,0,0,0-.12.12.06.06,0,0,0,0,.06.59.59,0,0,0,0,.08.9.9,0,0,0,.25.17h0a2.27,2.27,0,0,1,.28.18.53.53,0,0,1,.17.25.37.37,0,0,1,0,.21.44.44,0,0,1-.29.29.76.76,0,0,1-.45,0,1.06,1.06,0,0,1-.5-.38A.12.12,0,0,1,296.66,107.75Z"/><path class="cls-6" d="M298.13,108.16a.11.11,0,0,1,.16,0,.75.75,0,0,0,.38.29.43.43,0,0,0,.3,0c.08,0,.13-.07.14-.13a.11.11,0,0,0,0-.08.2.2,0,0,0,0-.08,1.13,1.13,0,0,0-.28-.19h0a1.78,1.78,0,0,1-.27-.17.53.53,0,0,1-.16-.23.67.67,0,0,1,0-.2.43.43,0,0,1,.27-.27.67.67,0,0,1,.42,0,1,1,0,0,1,.44.31.12.12,0,0,1,0,.17.11.11,0,0,1-.16,0,.76.76,0,0,0-.32-.25.48.48,0,0,0-.27,0,.2.2,0,0,0-.13.12v.06a.25.25,0,0,0,.05.08.67.67,0,0,0,.25.17h0a1.48,1.48,0,0,1,.28.17.59.59,0,0,1,.17.25.37.37,0,0,1,0,.21.44.44,0,0,1-.29.29.73.73,0,0,1-.44,0,1,1,0,0,1-.51-.38A.13.13,0,0,1,298.13,108.16Z"/><path class="cls-6" d="M300.24,108.52l-.27-.08-.14.48a.12.12,0,0,1-.15.09.13.13,0,0,1-.09-.16l.37-1.31a.12.12,0,0,1,.15-.09h0l.4.11a.5.5,0,0,1-.27,1Zm-.2-.33.27.08a.24.24,0,0,0,.3-.16.25.25,0,0,0-.17-.3l-.27-.08Z"/><path class="cls-6" d="M302.46,108.32a.86.86,0,0,1,.07.63.88.88,0,0,1-.38.5.84.84,0,0,1-.6.09.74.74,0,0,1-.48-.4.78.78,0,0,1-.06-.62.87.87,0,0,1,.37-.5.78.78,0,0,1,.62-.09A.78.78,0,0,1,302.46,108.32Zm-.18.56a.6.6,0,0,0,0-.44.47.47,0,0,0-.3-.25.52.52,0,0,0-.41,0,.59.59,0,0,0-.26.35.63.63,0,0,0,0,.43.51.51,0,0,0,.72.2A.65.65,0,0,0,302.28,108.88Z"/><path class="cls-6" d="M303.83,110a.14.14,0,0,1-.13.14h-.05a.25.25,0,0,1-.08,0,.23.23,0,0,1-.05-.1.78.78,0,0,1,0-.28.17.17,0,0,0,0-.1.22.22,0,0,0-.05-.08.35.35,0,0,0-.11-.09l-.26-.07-.14.48a.13.13,0,0,1-.16.09.13.13,0,0,1-.08-.16l.36-1.31a.13.13,0,0,1,.16-.09h0l.4.11a.49.49,0,0,1,.34.61.48.48,0,0,1-.27.32.31.31,0,0,1,.05.1.46.46,0,0,1,0,.26.58.58,0,0,0,0,.14A.15.15,0,0,1,303.83,110Zm-.07-1a.22.22,0,0,0-.16-.29l-.27-.08-.13.46.27.08A.24.24,0,0,0,303.76,109Z"/><path class="cls-6" d="M305.41,109.2l-.35-.1-.34,1.19a.12.12,0,0,1-.15.09.13.13,0,0,1-.09-.16l.33-1.18-.35-.1a.13.13,0,0,1,.07-.25l1,.27a.12.12,0,0,1,.09.15A.13.13,0,0,1,305.41,109.2Z"/><path class="cls-6" d="M299.14,125l-7.5-2.11a.32.32,0,0,1-.23-.4h0a.32.32,0,0,1,.4-.23l7.51,2.1a.33.33,0,0,1,.22.41h0A.33.33,0,0,1,299.14,125Z"/><rect class="cls-33" x="281.35" y="103.66" width="16.85" height="22.41" rx="3"/><path class="cls-6" d="M289.78,119.91a5,5,0,1,1,5-5A5.05,5.05,0,0,1,289.78,119.91Zm0-9.59a4.55,4.55,0,1,0,4.54,4.55A4.55,4.55,0,0,0,289.78,110.32Z"/><path class="cls-6" d="M289.78,119.91c-1.73,0-3.08-2.22-3.08-5s1.35-5.05,3.08-5.05,3.08,2.22,3.08,5.05S291.51,119.91,289.78,119.91Zm0-9.59c-1.42,0-2.58,2-2.58,4.55s1.16,4.54,2.58,4.54,2.58-2,2.58-4.54S291.2,110.32,289.78,110.32Z"/><rect class="cls-6" x="289.53" y="110.07" width="0.5" height="9.59"/><rect class="cls-6" x="284.99" y="114.61" width="9.59" height="0.5"/><rect class="cls-6" x="285.75" y="112.02" width="8.06" height="0.5"/><rect class="cls-6" x="285.75" y="117.21" width="8.06" height="0.5"/><path class="cls-6" d="M284.6,107h-.28v.51a.13.13,0,0,1-.26,0v-1.37a.13.13,0,0,1,.13-.13h.41a.5.5,0,0,1,.5.5A.49.49,0,0,1,284.6,107Zm-.28-.25h.28a.24.24,0,0,0,0-.48h-.28Z"/><path class="cls-6" d="M286.07,107.26h-.56l-.11.3a.13.13,0,0,1-.12.08h0a.14.14,0,0,1-.08-.17l.51-1.36a.12.12,0,0,1,.12-.08.11.11,0,0,1,.12.08l.52,1.36a.14.14,0,0,1-.08.17h0a.12.12,0,0,1-.12-.08ZM286,107l-.19-.5-.18.5Z"/><path class="cls-6" d="M286.65,107.24a.12.12,0,0,1,.17,0,.73.73,0,0,0,.44.18.5.5,0,0,0,.29-.08.21.21,0,0,0,.1-.17.14.14,0,0,0,0-.07.12.12,0,0,0-.07-.07.74.74,0,0,0-.32-.11h0a1.32,1.32,0,0,1-.3-.09.46.46,0,0,1-.21-.18.33.33,0,0,1-.06-.19.43.43,0,0,1,.19-.34.68.68,0,0,1,.4-.12,1,1,0,0,1,.5.18.12.12,0,0,1,0,.17.11.11,0,0,1-.16,0,.67.67,0,0,0-.37-.15.47.47,0,0,0-.26.08.2.2,0,0,0-.09.15.11.11,0,0,0,0,.06.17.17,0,0,0,.06.06.74.74,0,0,0,.29.1h0a2,2,0,0,1,.32.1.55.55,0,0,1,.23.19.36.36,0,0,1,.06.2.43.43,0,0,1-.2.36.73.73,0,0,1-.43.13,1,1,0,0,1-.59-.23A.12.12,0,0,1,286.65,107.24Z"/><path class="cls-6" d="M288.17,107.24a.12.12,0,0,1,.17,0,.73.73,0,0,0,.44.18.5.5,0,0,0,.29-.08.21.21,0,0,0,.1-.17.14.14,0,0,0,0-.07.16.16,0,0,0-.07-.07.74.74,0,0,0-.32-.11h0a1.32,1.32,0,0,1-.3-.09.46.46,0,0,1-.21-.18.33.33,0,0,1-.06-.19.43.43,0,0,1,.19-.34.68.68,0,0,1,.4-.12,1,1,0,0,1,.5.18.13.13,0,0,1,0,.17.11.11,0,0,1-.16,0,.67.67,0,0,0-.37-.15.47.47,0,0,0-.26.08.2.2,0,0,0-.09.15.11.11,0,0,0,0,.06.17.17,0,0,0,.06.06.74.74,0,0,0,.29.1h0a2,2,0,0,1,.32.1.55.55,0,0,1,.23.19.36.36,0,0,1,.06.2.43.43,0,0,1-.2.36.73.73,0,0,1-.43.13,1,1,0,0,1-.59-.23A.12.12,0,0,1,288.17,107.24Z"/><path class="cls-6" d="M290.31,107H290v.51a.13.13,0,0,1-.26,0v-1.37a.13.13,0,0,1,.13-.13h.42a.5.5,0,0,1,.49.5A.49.49,0,0,1,290.31,107Zm-.29-.25h.29a.24.24,0,1,0,0-.48H290Z"/><path class="cls-6" d="M292.39,106.23a.84.84,0,0,1,.23.58.89.89,0,0,1-.23.59.76.76,0,0,1-.55.24.77.77,0,0,1-.57-.24.89.89,0,0,1-.23-.59.84.84,0,0,1,.23-.58.74.74,0,0,1,.57-.25A.73.73,0,0,1,292.39,106.23Zm0,.58a.56.56,0,0,0-.16-.4.49.49,0,0,0-.36-.17.5.5,0,0,0-.38.17.58.58,0,0,0,0,.8.5.5,0,0,0,.38.17.49.49,0,0,0,.36-.17A.56.56,0,0,0,292.36,106.81Z"/><path class="cls-6" d="M294.15,107.45a.13.13,0,0,1-.08.16H294l-.09,0s-.05,0-.07-.08a.62.62,0,0,1-.05-.27.13.13,0,0,0,0-.1.16.16,0,0,0-.07-.07.49.49,0,0,0-.13-.06h-.27v.51a.13.13,0,0,1-.13.12.12.12,0,0,1-.12-.12v-1.37a.12.12,0,0,1,.12-.13h.42a.5.5,0,0,1,.31.88.24.24,0,0,1,.08.09.39.39,0,0,1,.08.25.42.42,0,0,0,0,.13A.15.15,0,0,1,294.15,107.45Zm-.33-.93a.23.23,0,0,0-.23-.24h-.29v.48h.29A.23.23,0,0,0,293.82,106.52Z"/><path class="cls-6" d="M295.47,106.28h-.37v1.24a.13.13,0,0,1-.26,0v-1.24h-.36a.13.13,0,0,1,0-.26h1a.13.13,0,0,1,0,.26Z"/><path class="cls-6" d="M293.67,123.16h-7.79a.33.33,0,0,1-.33-.33h0a.33.33,0,0,1,.33-.33h7.79a.33.33,0,0,1,.33.33h0A.33.33,0,0,1,293.67,123.16Z"/><rect class="cls-23" x="306.25" y="140.85" width="26.01" height="14.44" rx="2"/><path class="cls-6" d="M310.44,142.91l-.55,1.25h-.17l-.55-1.25h.19l.45,1,.45-1Z"/><path class="cls-6" d="M310.55,142.92a.11.11,0,0,1,.11-.11.11.11,0,1,1,0,.22A.11.11,0,0,1,310.55,142.92Zm0,.29h.17v.95h-.17Z"/><path class="cls-6" d="M311,144.06l.07-.14a.6.6,0,0,0,.34.1c.15,0,.22-.05.22-.13s-.6,0-.6-.4c0-.17.15-.29.4-.29a.71.71,0,0,1,.34.09l-.07.13a.55.55,0,0,0-.28-.07c-.14,0-.22.05-.22.13s.6,0,.6.41c0,.17-.16.28-.41.28A.72.72,0,0,1,311,144.06Z"/><path class="cls-6" d="M312.71,143.59v.57h-.16V144a.34.34,0,0,1-.31.14c-.21,0-.35-.12-.35-.28s.1-.28.38-.28h.27v0c0-.15-.08-.23-.25-.23a.49.49,0,0,0-.3.1l-.07-.13a.69.69,0,0,1,.39-.12A.35.35,0,0,1,312.71,143.59Zm-.17.28v-.13h-.26c-.17,0-.22.06-.22.14s.08.15.21.15A.26.26,0,0,0,312.54,143.87Z"/><path class="cls-6" d="M327.55,152.47l-.79,1.25h-.23l-.29-1.25h.24l.22,1,.61-1Z"/><path class="cls-6" d="M327.61,152.77h.22l-.19.95h-.22Zm0-.28a.14.14,0,0,1,.15-.14.12.12,0,0,1,.13.12.14.14,0,0,1-.15.14A.12.12,0,0,1,327.64,152.49Z"/><path class="cls-6" d="M327.86,153.63l.09-.17a.67.67,0,0,0,.33.09c.15,0,.22,0,.22-.11s-.52,0-.52-.36.19-.32.46-.32a.71.71,0,0,1,.34.08l-.08.17a.58.58,0,0,0-.28-.07c-.15,0-.22.05-.22.11s.52,0,.52.36-.19.32-.46.32A.74.74,0,0,1,327.86,153.63Z"/><path class="cls-6" d="M330,152.77l-.19.95h-.21l0-.1a.47.47,0,0,1-.31.11.4.4,0,0,1-.42-.42.53.53,0,0,1,.54-.55.35.35,0,0,1,.32.15l0-.14Zm-.31.42a.22.22,0,0,0-.25-.24.32.32,0,0,0-.32.35.22.22,0,0,0,.25.24A.32.32,0,0,0,329.66,153.19Z"/><rect class="cls-34" x="309.17" y="145.56" width="3.8" height="3.8" rx="1"/><path class="cls-6" d="M329.79,151.18H309.17A.22.22,0,0,1,309,151a.22.22,0,0,1,.22-.22h20.62a.22.22,0,0,1,.22.22A.22.22,0,0,1,329.79,151.18Z"/><path class="cls-6" d="M313,153.35h-3.81a.22.22,0,0,1-.22-.22.22.22,0,0,1,.22-.23H313a.22.22,0,0,1,.22.23A.22.22,0,0,1,313,153.35Z"/><circle class="cls-6" cx="286.79" cy="141.9" r="2.73"/><circle class="cls-6" cx="294.15" cy="149.36" r="2.43"/><path class="cls-6" d="M238.55,87.23H210.32a3.11,3.11,0,0,0-3.11,3.11v10.22a3.12,3.12,0,0,0,3.11,3.12h25.84l5.5,5.49V90.34A3.11,3.11,0,0,0,238.55,87.23Z"/><path class="cls-6" d="M205.61,108.47h28.23a3.11,3.11,0,0,1,3.11,3.11V121.8a3.11,3.11,0,0,1-3.11,3.11H208l-5.5,5.5V111.58A3.11,3.11,0,0,1,205.61,108.47Z"/><circle class="cls-13" cx="218.83" cy="94.99" r="1.53"/><circle class="cls-13" cx="224.17" cy="94.99" r="1.53"/><circle class="cls-13" cx="229.51" cy="94.99" r="1.53"/><circle class="cls-13" cx="215.03" cy="116.38" r="1.53"/><circle class="cls-13" cx="220.37" cy="116.38" r="1.53"/><circle class="cls-13" cx="225.7" cy="116.38" r="1.53"/></g></g></svg>