<svg xmlns="http://www.w3.org/2000/svg" viewBox="0 0 115 115"><defs><style>.cls-1{fill:#d11f30;}.cls-2{fill:#fff;}</style></defs><title>mic</title><g id="Layer_2" data-name="Layer 2"><g id="Layer_1-2" data-name="Layer 1"><circle class="cls-1" cx="57.5" cy="57.5" r="57.5"/><path class="cls-2" d="M55,56a1.85,1.85,0,0,1-1.85,1.85H45.26a12.43,12.43,0,0,0,24.48,0h-8a1.86,1.86,0,1,1,0-3.71h8.18v-3.7H61.75a1.86,1.86,0,1,1,0-3.71h8.18V43H61.75a1.85,1.85,0,1,1,0-3.7h8a12.43,12.43,0,0,0-24.58,0h7.92a1.85,1.85,0,0,1,0,3.7H45.07v3.71h8.06a1.86,1.86,0,0,1,0,3.71H45.07v3.7h8.06A1.85,1.85,0,0,1,55,56Z"/><path class="cls-2" d="M77.34,55.69V51.06a1.85,1.85,0,0,0-3.7,0v4.63a16.14,16.14,0,0,1-32.28,0V51.06a1.85,1.85,0,0,0-3.7,0v4.63a19.87,19.87,0,0,0,18,19.75V85.86h-7A6.15,6.15,0,0,0,42.47,92H72.53a6.15,6.15,0,0,0-6.14-6.14h-7V75.44a19.87,19.87,0,0,0,18-19.75Z"/></g></g></svg>