<svg xmlns="http://www.w3.org/2000/svg" viewBox="0 0 630 200"><defs><style>.cls-1{fill:#d11f30;}.cls-2{fill:#fff;}.cls-3{fill:#404656;}.cls-4{fill:#5f75a1;}.cls-5{fill:#3a5093;}.cls-6{fill:#99da90;}.cls-7{fill:#69ab8d;}.cls-8{fill:#353947;}.cls-9{fill:#deddf5;}.cls-10{fill:#b49cdc;}.cls-11{fill:#f8dccc;}.cls-12{fill:#f0cdb9;}.cls-13{fill:#e8899e;}.cls-14{fill:#f8b8bd;}</style></defs><title>Traveler</title><g id="Layer_2" data-name="Layer 2"><g id="Layer_1-2" data-name="Layer 1"><rect class="cls-1" width="630" height="200" rx="10"/><path class="cls-2" d="M190.79,71.57H178.7V64.45h32.94v7.12h-12.1v30.68h-8.75Z"/><path class="cls-2" d="M233.13,72.76v7.78c-.7-.06-1.24-.11-1.89-.11-4.64,0-7.72,2.54-7.72,8.1v13.72h-8.43V73.19h8V77C225.19,74.22,228.65,72.76,233.13,72.76Z"/><path class="cls-2" d="M263.69,85.67v16.58h-7.88V98.63c-1.57,2.64-4.59,4.05-8.86,4.05-6.8,0-10.85-3.78-10.85-8.8s3.62-8.7,12.47-8.7h6.7c0-3.62-2.16-5.72-6.7-5.72a14,14,0,0,0-8.37,2.7l-3-5.89c3.19-2.27,7.88-3.51,12.53-3.51C258.56,72.76,263.69,76.87,263.69,85.67Zm-8.42,7.4v-3h-5.78c-3.94,0-5.18,1.45-5.18,3.4S246.09,97,249.06,97C251.87,97,254.3,95.71,255.27,93.07Z"/><path class="cls-2" d="M299.6,73.19l-12.25,29.06h-8.7l-12.2-29.06h8.69L283.19,93l8.31-19.77Z"/><path class="cls-2" d="M330.54,90.1h-22c.81,3.61,3.88,5.83,8.31,5.83a9.85,9.85,0,0,0,7.29-2.81L328.66,98c-2.7,3.08-6.76,4.7-12,4.7-10.05,0-16.58-6.32-16.58-15s6.64-15,15.5-15c8.53,0,15.12,5.73,15.12,15.07C330.71,88.48,330.6,89.39,330.54,90.1Zm-22.08-4.92h14.31a7.26,7.26,0,0,0-14.31,0Z"/><path class="cls-2" d="M336.32,62.18h8.43v40.07h-8.43Z"/><path class="cls-2" d="M380.87,90.1h-22c.82,3.61,3.89,5.83,8.32,5.83a9.85,9.85,0,0,0,7.29-2.81L379,98c-2.7,3.08-6.75,4.7-12,4.7-10.05,0-16.58-6.32-16.58-15s6.64-15,15.5-15c8.53,0,15.12,5.73,15.12,15.07C381,88.48,380.93,89.39,380.87,90.1Zm-22.08-4.92H373.1a7.26,7.26,0,0,0-14.31,0Z"/><path class="cls-2" d="M404.69,72.76v7.78c-.71-.06-1.25-.11-1.89-.11-4.65,0-7.73,2.54-7.73,8.1v13.72h-8.42V73.19h8.05V77C396.75,74.22,400.2,72.76,404.69,72.76Z"/><path class="cls-2" d="M182.76,120.24h1.48v14h-1.48Z"/><path class="cls-2" d="M198.18,128.14v6.11h-1.42v-6c0-2.23-1.16-3.37-3.16-3.37a3.45,3.45,0,0,0-3.68,3.8v5.53H188.5V123.72h1.36v1.94a4.42,4.42,0,0,1,4-2C196.42,123.64,198.18,125.12,198.18,128.14Z"/><path class="cls-2" d="M212.82,133.61a3.38,3.38,0,0,1-2.22.74,2.79,2.79,0,0,1-3.08-3.06v-6.37h-1.88v-1.2h1.88v-2.3h1.42v2.3h3.2v1.2h-3.2v6.29a1.68,1.68,0,0,0,1.82,1.92,2.35,2.35,0,0,0,1.56-.54Z"/><path class="cls-2" d="M225.08,128.14v6.11h-1.42v-6c0-2.23-1.16-3.37-3.16-3.37a3.45,3.45,0,0,0-3.68,3.8v5.53H215.4V119.4h1.42v6.16a4.45,4.45,0,0,1,3.94-1.92C223.32,123.64,225.08,125.12,225.08,128.14Z"/><path class="cls-2" d="M228.62,120.4a1,1,0,0,1,1-1,1,1,0,0,1,1,1,1,1,0,0,1-2.08,0Zm.32,3.32h1.42v10.53h-1.42Z"/><path class="cls-2" d="M232.86,133.05l.64-1.12a6.35,6.35,0,0,0,3.74,1.18c2,0,2.82-.68,2.82-1.73,0-2.74-6.82-.58-6.82-4.74,0-1.72,1.48-3,4.16-3a7.13,7.13,0,0,1,3.72,1l-.62,1.14a5.39,5.39,0,0,0-3.1-.9c-1.9,0-2.74.74-2.74,1.74,0,2.85,6.82.7,6.82,4.75,0,1.82-1.6,3-4.34,3A7,7,0,0,1,232.86,133.05Z"/><path class="cls-2" d="M249.34,119.4h1.42v14.85h-1.42Z"/><path class="cls-2" d="M263.88,129.43h-8.8a3.9,3.9,0,0,0,4.14,3.66,4.15,4.15,0,0,0,3.22-1.38l.8.92a5.56,5.56,0,0,1-9.58-3.65,5.07,5.07,0,0,1,5.14-5.34,5,5,0,0,1,5.1,5.34C263.9,129.11,263.88,129.27,263.88,129.43Zm-8.8-1.06h7.46a3.74,3.74,0,0,0-7.46,0Z"/><path class="cls-2" d="M275.44,123.72l-4.68,10.53H269.3l-4.66-10.53h1.48l3.94,9,4-9Z"/><path class="cls-2" d="M286.3,129.43h-8.8a3.9,3.9,0,0,0,4.14,3.66,4.15,4.15,0,0,0,3.22-1.38l.8.92a5.56,5.56,0,0,1-9.58-3.65,5.07,5.07,0,0,1,5.14-5.34,5,5,0,0,1,5.1,5.34C286.32,129.11,286.3,129.27,286.3,129.43Zm-8.8-1.06H285a3.74,3.74,0,0,0-7.46,0Z"/><path class="cls-2" d="M289.22,119.4h1.42v14.85h-1.42Z"/><path class="cls-2" d="M298.78,129a5.18,5.18,0,0,1,5.42-5.34,4.59,4.59,0,0,1,4.12,2.08l-1.06.72a3.58,3.58,0,0,0-3.06-1.56,4.11,4.11,0,0,0,0,8.21,3.54,3.54,0,0,0,3.06-1.55l1.06.73a4.64,4.64,0,0,1-4.12,2.08A5.2,5.2,0,0,1,298.78,129Z"/><path class="cls-2" d="M309.86,129a5.35,5.35,0,1,1,5.36,5.37A5.17,5.17,0,0,1,309.86,129Zm9.26,0a3.91,3.91,0,1,0-3.9,4.11A3.84,3.84,0,0,0,319.12,129Z"/><path class="cls-2" d="M333.14,128.14v6.11h-1.42v-6c0-2.23-1.16-3.37-3.16-3.37a3.45,3.45,0,0,0-3.68,3.8v5.53h-1.42V123.72h1.36v1.94a4.42,4.42,0,0,1,4-2C331.38,123.64,333.14,125.12,333.14,128.14Z"/><path class="cls-2" d="M342.54,133.61a3.38,3.38,0,0,1-2.22.74,2.79,2.79,0,0,1-3.08-3.06v-6.37h-1.88v-1.2h1.88v-2.3h1.42v2.3h3.2v1.2h-3.2v6.29a1.68,1.68,0,0,0,1.82,1.92,2.35,2.35,0,0,0,1.56-.54Z"/><path class="cls-2" d="M353.06,127.72v6.53H351.7v-1.64a4,4,0,0,1-3.62,1.74c-2.38,0-3.84-1.24-3.84-3.06,0-1.62,1-3,4.06-3h3.34v-.64c0-1.8-1-2.78-3-2.78a5.36,5.36,0,0,0-3.5,1.24l-.64-1.06a6.68,6.68,0,0,1,4.28-1.42C351.52,123.64,353.06,125,353.06,127.72Zm-1.42,3.37v-1.72h-3.3c-2,0-2.7.8-2.7,1.88s1,2,2.66,2A3.37,3.37,0,0,0,351.64,131.09Z"/><path class="cls-2" d="M356.6,120.4a1,1,0,0,1,1-1,1,1,0,0,1,1,1,1,1,0,0,1-2.08,0Zm.32,3.32h1.42v10.53h-1.42Z"/><path class="cls-2" d="M372,128.14v6.11h-1.42v-6c0-2.23-1.16-3.37-3.16-3.37a3.45,3.45,0,0,0-3.68,3.8v5.53H362.3V123.72h1.36v1.94a4.42,4.42,0,0,1,4-2C370.22,123.64,372,125.12,372,128.14Z"/><path class="cls-2" d="M374.38,133.05l.64-1.12a6.35,6.35,0,0,0,3.74,1.18c2,0,2.82-.68,2.82-1.73,0-2.74-6.82-.58-6.82-4.74,0-1.72,1.48-3,4.16-3a7.13,7.13,0,0,1,3.72,1l-.62,1.14a5.39,5.39,0,0,0-3.1-.9c-1.9,0-2.74.74-2.74,1.74,0,2.85,6.82.7,6.82,4.75,0,1.82-1.6,3-4.34,3A7,7,0,0,1,374.38,133.05Z"/><path class="cls-2" d="M396.4,133.61a3.38,3.38,0,0,1-2.22.74,2.79,2.79,0,0,1-3.08-3.06v-6.37h-1.88v-1.2h1.88v-2.3h1.42v2.3h3.2v1.2h-3.2v6.29a1.68,1.68,0,0,0,1.82,1.92,2.35,2.35,0,0,0,1.56-.54Z"/><path class="cls-2" d="M408.66,128.14v6.11h-1.42v-6c0-2.23-1.16-3.37-3.16-3.37a3.45,3.45,0,0,0-3.68,3.8v5.53H399V119.4h1.42v6.16a4.45,4.45,0,0,1,3.94-1.92C406.9,123.64,408.66,125.12,408.66,128.14Z"/><path class="cls-2" d="M421.72,129.43h-8.8a3.9,3.9,0,0,0,4.14,3.66,4.15,4.15,0,0,0,3.22-1.38l.8.92A5.56,5.56,0,0,1,411.5,129a5.07,5.07,0,0,1,5.14-5.34,5,5,0,0,1,5.1,5.34C421.74,129.11,421.72,129.27,421.72,129.43Zm-8.8-1.06h7.46a3.74,3.74,0,0,0-7.46,0Z"/><path class="cls-2" d="M435.42,133.61a3.38,3.38,0,0,1-2.22.74,2.79,2.79,0,0,1-3.08-3.06v-6.37h-1.88v-1.2h1.88v-2.3h1.42v2.3h3.2v1.2h-3.2v6.29a1.68,1.68,0,0,0,1.82,1.92,2.35,2.35,0,0,0,1.56-.54Z"/><path class="cls-2" d="M443.3,123.64V125l-.34,0c-2.2,0-3.54,1.4-3.54,3.88v5.37H438V123.72h1.36v2.06A4,4,0,0,1,443.3,123.64Z"/><path class="cls-2" d="M453.78,127.72v6.53h-1.36v-1.64a4,4,0,0,1-3.62,1.74c-2.38,0-3.84-1.24-3.84-3.06,0-1.62,1-3,4.06-3h3.34v-.64c0-1.8-1-2.78-3-2.78a5.36,5.36,0,0,0-3.5,1.24l-.64-1.06a6.68,6.68,0,0,1,4.28-1.42C452.24,123.64,453.78,125,453.78,127.72Zm-1.42,3.37v-1.72h-3.3c-2,0-2.7.8-2.7,1.88s1,2,2.66,2A3.37,3.37,0,0,0,452.36,131.09Z"/><path class="cls-2" d="M466.28,123.72l-4.68,10.53h-1.46l-4.66-10.53H457l3.94,9,4-9Z"/><path class="cls-2" d="M477.14,129.43h-8.8a3.9,3.9,0,0,0,4.14,3.66,4.15,4.15,0,0,0,3.22-1.38l.8.92a5.56,5.56,0,0,1-9.58-3.65,5.07,5.07,0,0,1,5.14-5.34,5,5,0,0,1,5.1,5.34C477.16,129.11,477.14,129.27,477.14,129.43Zm-8.8-1.06h7.46a3.74,3.74,0,0,0-7.46,0Z"/><path class="cls-2" d="M480.06,119.4h1.42v14.85h-1.42Z"/><path class="cls-2" d="M494.6,129.43h-8.8a3.9,3.9,0,0,0,4.14,3.66,4.15,4.15,0,0,0,3.22-1.38l.8.92a5.56,5.56,0,0,1-9.58-3.65,5.07,5.07,0,0,1,5.14-5.34,5,5,0,0,1,5.1,5.34C494.62,129.11,494.6,129.27,494.6,129.43Zm-8.8-1.06h7.46a3.74,3.74,0,0,0-7.46,0Z"/><path class="cls-2" d="M502.82,123.64V125l-.34,0c-2.2,0-3.54,1.4-3.54,3.88v5.37h-1.42V123.72h1.36v2.06A4,4,0,0,1,502.82,123.64Z"/><path class="cls-2" d="M181.4,153a5.18,5.18,0,0,1,5.42-5.34,4.59,4.59,0,0,1,4.12,2.08l-1.06.72a3.58,3.58,0,0,0-3.06-1.56,4.11,4.11,0,0,0,0,8.21,3.54,3.54,0,0,0,3.06-1.55l1.06.73a4.64,4.64,0,0,1-4.12,2.08A5.2,5.2,0,0,1,181.4,153Z"/><path class="cls-2" d="M192.48,153a5.35,5.35,0,1,1,5.36,5.37A5.17,5.17,0,0,1,192.48,153Zm9.26,0a3.91,3.91,0,1,0-3.9,4.11A3.84,3.84,0,0,0,201.74,153Z"/><path class="cls-2" d="M215.76,152.14v6.11h-1.42v-6c0-2.23-1.16-3.37-3.16-3.37a3.45,3.45,0,0,0-3.68,3.8v5.53h-1.42V147.72h1.36v1.94a4.42,4.42,0,0,1,4-2C214,147.64,215.76,149.12,215.76,152.14Z"/><path class="cls-2" d="M228.26,147.72l-4.68,10.53h-1.46l-4.66-10.53h1.48l3.94,9,4-9Z"/><path class="cls-2" d="M239.12,153.43h-8.8a3.9,3.9,0,0,0,4.14,3.66,4.15,4.15,0,0,0,3.22-1.38l.8.92A5.56,5.56,0,0,1,228.9,153a5.07,5.07,0,0,1,5.14-5.34,5,5,0,0,1,5.1,5.34C239.14,153.11,239.12,153.27,239.12,153.43Zm-8.8-1.06h7.46a3.74,3.74,0,0,0-7.46,0Z"/><path class="cls-2" d="M247.34,147.64V149l-.34,0c-2.2,0-3.54,1.4-3.54,3.88v5.37H242V147.72h1.36v2.06A4,4,0,0,1,247.34,147.64Z"/><path class="cls-2" d="M248.52,157.05l.64-1.12a6.35,6.35,0,0,0,3.74,1.18c2,0,2.82-.68,2.82-1.73,0-2.74-6.82-.58-6.82-4.74,0-1.72,1.48-3,4.16-3a7.13,7.13,0,0,1,3.72,1l-.62,1.14a5.39,5.39,0,0,0-3.1-.9c-1.9,0-2.74.74-2.74,1.74,0,2.85,6.82.7,6.82,4.75,0,1.82-1.6,3-4.34,3A7,7,0,0,1,248.52,157.05Z"/><path class="cls-2" d="M267.7,151.72v6.53h-1.36v-1.64a4,4,0,0,1-3.62,1.74c-2.38,0-3.84-1.24-3.84-3.06,0-1.62,1-3,4.06-3h3.34v-.64c0-1.8-1-2.78-3-2.78a5.36,5.36,0,0,0-3.5,1.24l-.64-1.06a6.68,6.68,0,0,1,4.28-1.42C266.16,147.64,267.7,149,267.7,151.72Zm-1.42,3.37v-1.72H263c-2,0-2.7.8-2.7,1.88s1,2,2.66,2A3.37,3.37,0,0,0,266.28,155.09Z"/><path class="cls-2" d="M277.1,157.61a3.38,3.38,0,0,1-2.22.74,2.79,2.79,0,0,1-3.08-3.06v-6.37h-1.88v-1.2h1.88v-2.3h1.42v2.3h3.2v1.2h-3.2v6.29a1.68,1.68,0,0,0,1.82,1.92,2.35,2.35,0,0,0,1.56-.54Z"/><path class="cls-2" d="M279.36,144.4a1,1,0,0,1,1-1,1,1,0,0,1,1,1,1,1,0,0,1-2.08,0Zm.32,3.32h1.42v10.53h-1.42Z"/><path class="cls-2" d="M284,153a5.35,5.35,0,1,1,5.36,5.37A5.17,5.17,0,0,1,284,153Zm9.26,0a3.91,3.91,0,1,0-3.9,4.11A3.84,3.84,0,0,0,293.26,153Z"/><path class="cls-2" d="M307.28,152.14v6.11h-1.42v-6c0-2.23-1.16-3.37-3.16-3.37a3.45,3.45,0,0,0-3.68,3.8v5.53H297.6V147.72H299v1.94a4.42,4.42,0,0,1,4-2C305.52,147.64,307.28,149.12,307.28,152.14Z"/><path class="cls-2" d="M310.22,157.25a1.06,1.06,0,0,1,1.06-1.08,1.08,1.08,0,0,1,1.08,1.08,1.09,1.09,0,0,1-1.08,1.1A1.08,1.08,0,0,1,310.22,157.25Z"/><path class="cls-3" d="M38,151.34H35.44a1.61,1.61,0,0,1-1.61-1.61v-4.14h5.74v4.14A1.6,1.6,0,0,1,38,151.34Z"/><path class="cls-3" d="M55.55,151.34h2.53a1.61,1.61,0,0,0,1.61-1.61v-4.14H53.94v4.14A1.61,1.61,0,0,0,55.55,151.34Z"/><path class="cls-3" d="M39.38,107.5a1.63,1.63,0,0,1-1.62-1.62V99.39a1.62,1.62,0,1,1,3.24,0v6.49A1.62,1.62,0,0,1,39.38,107.5Z"/><path class="cls-3" d="M54.13,107.5a1.63,1.63,0,0,1-1.62-1.62V99.39a1.63,1.63,0,0,1,3.25,0v6.49A1.63,1.63,0,0,1,54.13,107.5Z"/><path class="cls-4" d="M56.76,93.38h-20a1.55,1.55,0,0,0-1.55,1.56v2.89a1.55,1.55,0,0,0,1.55,1.56h20a1.55,1.55,0,0,0,1.55-1.56V94.94A1.55,1.55,0,0,0,56.76,93.38Z"/><path class="cls-5" d="M36.76,93.38a1.55,1.55,0,0,0-1.55,1.56v2.89a1.55,1.55,0,0,0,1.55,1.56h8.72a6.14,6.14,0,0,1-1.48-6Z"/><path class="cls-6" d="M59.69,145.59H33.83a6.78,6.78,0,0,1-6.78-6.77V112.65a6.78,6.78,0,0,1,6.78-6.77H59.69a6.77,6.77,0,0,1,6.77,6.77v26.17A6.77,6.77,0,0,1,59.69,145.59Z"/><path class="cls-7" d="M43,105.88H33.83a6.78,6.78,0,0,0-6.78,6.77v26.17a6.78,6.78,0,0,0,6.78,6.77H49.21C42.52,136.88,42.45,113.36,43,105.88Z"/><path class="cls-3" d="M56,117.77c0-1.78-4.14-3.21-9.25-3.21s-9.25,1.43-9.25,3.21,4.14,3.2,9.25,3.2S56,119.54,56,117.77Z"/><path class="cls-8" d="M42.79,114.87c-3.12.51-5.28,1.62-5.28,2.9s2.27,2.43,5.51,2.93C42.9,118.67,42.82,116.7,42.79,114.87Z"/><path class="cls-9" d="M54.13,134.77H39.38a1.63,1.63,0,0,1,0-3.25H54.13a1.63,1.63,0,1,1,0,3.25Z"/><path class="cls-3" d="M127.08,104.17,63.73,98.63A2,2,0,0,1,62,95.85a28.68,28.68,0,0,0,1.87-8L65,75.42,129.9,81.1l-1.09,12.43a28.93,28.93,0,0,0,.46,8.2A2,2,0,0,1,127.08,104.17Z"/><path class="cls-3" d="M105.19,152a6,6,0,0,1-1.18-.12,5.8,5.8,0,0,1-4.5-6.85c.8-3.86.37-13.35-.09-18.43a5.79,5.79,0,1,1,11.54-1c.13,1.52,1.3,15-.1,21.83A5.8,5.8,0,0,1,105.19,152Z"/><path class="cls-10" d="M99.78,143.05a15.33,15.33,0,0,1-.27,2,5.8,5.8,0,0,0,4.5,6.85,6,6,0,0,0,1.18.12,5.8,5.8,0,0,0,5.67-4.62,26.55,26.55,0,0,0,.4-2.67Z"/><path class="cls-3" d="M86.48,152a5.8,5.8,0,0,1-5.79-5.8V126.07a5.8,5.8,0,0,1,11.59,0V146.2A5.8,5.8,0,0,1,86.48,152Z"/><path class="cls-10" d="M80.69,143.74v2.46a5.8,5.8,0,1,0,11.59,0v-2.46Z"/><path class="cls-11" d="M130.11,123.81a23.37,23.37,0,0,1-12.76-4,39.26,39.26,0,0,1-11.14-11.6,5.79,5.79,0,1,1,9.72-6.31c4.58,7.06,10.27,10.91,15.23,10.29a5.79,5.79,0,1,1,1.44,11.5A20.8,20.8,0,0,1,130.11,123.81Z"/><path class="cls-11" d="M68.84,114.8c-.72,0-1.44,0-2.17-.1a29,29,0,0,1-14.76-6A5.79,5.79,0,1,1,59,99.55a17.33,17.33,0,0,0,8.71,3.61,10.35,10.35,0,0,0,8.75-3.32A5.8,5.8,0,0,1,84.73,108,21.87,21.87,0,0,1,68.84,114.8Z"/><path class="cls-10" d="M114.4,112.71c0-13.37-8.31-24.21-18.57-24.21S77.27,99.34,77.27,112.71,81.54,134,95.83,134,114.4,126.08,114.4,112.71Z"/><path class="cls-3" d="M78.59,123.23c2.16,6.9,7.25,10.76,17.24,10.76s15.09-3.86,17.25-10.76Z"/><path class="cls-11" d="M58,75c-.35,4.06,3.24,7.7,8,8.11s8.94-2.53,9.3-6.59-3.24-7.69-8-8.11S58.32,70.92,58,75Z"/><path class="cls-12" d="M136.87,81.89c.36-4.06-3.23-7.69-8-8.11s-9,2.54-9.3,6.6,3.23,7.69,8,8.11S136.52,86,136.87,81.89Z"/><path class="cls-13" d="M135.28,89.47a5.2,5.2,0,1,1-5.2-5.2A5.2,5.2,0,0,1,135.28,89.47Z"/><path class="cls-13" d="M68.54,83.64a5.2,5.2,0,1,1-5.2-5.2A5.19,5.19,0,0,1,68.54,83.64Z"/><path class="cls-11" d="M129.49,81.24c1.45-16.6-11.73-31.32-29.44-32.87S66.8,59,65.34,75.63s12.06,27.53,29.78,29.08S128,97.85,129.49,81.24Z"/><path class="cls-12" d="M78.49,53.82A29.37,29.37,0,0,0,65.34,75.63c-1.45,16.61,12.06,27.53,29.78,29.08,1.4.12,2.78.18,4.15.18C74,95.34,71.4,69.45,78.49,53.82Z"/><path class="cls-14" d="M84,84.35c.29-3.29-2.82-6.24-6.94-6.6s-7.69,2-8,5.29,2.82,6.23,6.94,6.59S83.75,87.63,84,84.35Z"/><path class="cls-14" d="M109.56,86.57c-.28,3.28,2.82,6.23,6.94,6.59s7.7-2,8-5.28-2.82-6.24-6.94-6.6S109.85,83.29,109.56,86.57Z"/><path class="cls-3" d="M81.45,79.76h-.14A1.64,1.64,0,0,1,79.83,78l.24-2.63a1.62,1.62,0,1,1,3.22.28l-.23,2.63A1.61,1.61,0,0,1,81.45,79.76Z"/><path class="cls-3" d="M113.19,82.54h-.14a1.61,1.61,0,0,1-1.47-1.75l.23-2.63a1.62,1.62,0,1,1,3.23.28l-.23,2.63A1.63,1.63,0,0,1,113.19,82.54Z"/><path class="cls-3" d="M97.63,83.2q-.31,0-.63,0a7.17,7.17,0,0,1-5.18-2.93,1.62,1.62,0,1,1,2.62-1.91,3.95,3.95,0,0,0,5.93.52,1.62,1.62,0,1,1,2.25,2.33A7.2,7.2,0,0,1,97.63,83.2Z"/><path class="cls-3" d="M128.3,77a1.75,1.75,0,0,0,2.47-1.8c-1.82-14.62-14.4-26.61-30.61-28s-30.69,8.21-35,22.29a1.74,1.74,0,0,0,2.08,2.21c3.54-.91,7.52-3.32,11.38-7.79,4,5.71,18.11,10.12,37.76-.57C119.79,70.82,124.18,75.09,128.3,77Z"/><path class="cls-8" d="M67.22,71.64a20.17,20.17,0,0,0,8-4.36,38.6,38.6,0,0,1,4.42-15.66A31.3,31.3,0,0,0,65.14,69.43,1.74,1.74,0,0,0,67.22,71.64Z"/><path class="cls-2" d="M105.19,153.5a7.43,7.43,0,0,1-1.48-.15,7.25,7.25,0,0,1-5.78-6.43,7,7,0,0,1,.11-2.19c0-.12,0-.24.07-.37l0-.1,0-.32,0-.1,0-.39c0-.19,0-.36.05-.53a71.65,71.65,0,0,0,.13-7.52l-.64,0h-.11l-1,0c-.58,0-1.16,0-1.72,0l-1.09,0h-.11v10.77c0,.21,0,.43,0,.64,0,0,0,.11,0,.12A7.31,7.31,0,0,1,92,151l-.57.58a7.26,7.26,0,0,1-4.15,1.85h-.1c-.22,0-.43,0-.65,0a7.3,7.3,0,0,1-7.29-7.29V128.13a16.59,16.59,0,0,1-1.29-2.44,29.55,29.55,0,0,1-2.08-10.44,23.1,23.1,0,0,1-7.86,1v22.54A8.29,8.29,0,0,1,61.19,147v2.77a3.11,3.11,0,0,1-3.11,3.11H55.55a3.12,3.12,0,0,1-3.11-3.11v-2.64H41.07v2.64a3.11,3.11,0,0,1-3.1,3.11H35.44a3.11,3.11,0,0,1-3.11-3.11V147a8.24,8.24,0,0,1-6.73-7.3,7.89,7.89,0,0,1-.05-.84V112.65a8.29,8.29,0,0,1,8.28-8.27h2.43v-3.54a3,3,0,0,1-2.55-3V94.94a3.06,3.06,0,0,1,3-3.06h20a3.06,3.06,0,0,1,3.05,3.06v2.89a3,3,0,0,1,0,.42l.15.11a15.84,15.84,0,0,0,7.93,3.31,8.8,8.8,0,0,0,4.66-.76l-8.92-.79a3.54,3.54,0,0,1-3-4.82,28.12,28.12,0,0,0,1.44-5.09,6.71,6.71,0,0,1-4.3-10.28,8.11,8.11,0,0,1-1.28-5.08c.34-3.9,3.61-7.08,7.91-7.83l.17-.44,0-.09,1.56-3.29.74-1.29.29-.46.1-.17.35-.54c.61-.9,1.21-1.71,1.86-2.5l.48-.57.07-.09.42-.48.07-.08.44-.47.09-.1L71.5,56l.08-.09.46-.45.08-.08.48-.45.58-.54a34.8,34.8,0,0,1,5-3.67l.65-.39.05,0a36.32,36.32,0,0,1,21.42-4.66c15.93,1.4,28.81,12.56,31.64,27.3,4.11,1.49,6.78,5.18,6.43,9.08a8.06,8.06,0,0,1-2.14,4.78,6.59,6.59,0,0,1,.56,2.67,6.71,6.71,0,0,1-6.57,6.7,26.61,26.61,0,0,0,.53,5.27,3.54,3.54,0,0,1-3.79,4.23l-6.71-.59c3.54,4,7.42,6,10.74,5.59a7.3,7.3,0,0,1,6.66,11.72,7.24,7.24,0,0,1-4.86,2.76A24.33,24.33,0,0,1,116.53,121c-.4-.26-.8-.53-1.19-.82a25.94,25.94,0,0,1-.83,3.47c-.07.25-.14.44-.2.63-.18.51-.35.93-.52,1.33l0,.1c-.08.19-.17.38-.26.56s-.2.42-.3.62l-.32.57-.22.37c.32,4.47.83,14.27-.32,19.82A7.33,7.33,0,0,1,105.19,153.5Zm-5.33-21.25a1.54,1.54,0,0,1,1,.35,1.5,1.5,0,0,1,.53,1.09,81.51,81.51,0,0,1-.08,9.49q0,.3-.06.57c0,.19,0,.35-.06.5s0,.1,0,.11l-.08.5c0,.17-.06.33-.09.47a4.33,4.33,0,0,0-.07,1.29,4.27,4.27,0,0,0,3.41,3.79,4.34,4.34,0,0,0,5.07-3.33c1.12-5.4.53-15.43.23-19.49a1.49,1.49,0,0,1,.24-.94c.13-.19.25-.39.37-.59l.27-.48c.11-.22.2-.38.28-.55l.22-.49c.18-.43.32-.78.44-1.14s.14-.41.2-.57a27.74,27.74,0,0,0,1.06-5.56,1.49,1.49,0,0,1,.93-1.25,1.51,1.51,0,0,1,1.54.25,29,29,0,0,0,3,2.25,21.28,21.28,0,0,0,14.24,3.65,4.28,4.28,0,0,0,3.73-4.79h0a4.3,4.3,0,0,0-4.79-3.73c-5.2.66-10.91-2.82-15.68-9.5a1.5,1.5,0,0,1,1.35-2.36l10.19.89a.6.6,0,0,0,.46-.18.52.52,0,0,0,.13-.47,30.35,30.35,0,0,1-.55-7.61,1.5,1.5,0,0,1,1.88-1.37,3.81,3.81,0,0,0,1,.12,3.69,3.69,0,0,0,3-5.8,1.51,1.51,0,0,1,.27-2,5.27,5.27,0,0,0,2-3.59c.24-2.74-1.93-5.35-5.15-6.22a1.51,1.51,0,0,1-1.1-1.21C126.89,60.5,114.92,49.94,100,48.63a33.34,33.34,0,0,0-19.68,4.29h0l-.59.36a31.73,31.73,0,0,0-4.52,3.33l-.51.46-.49.46-.08.08-.49.49c-.14.13-.27.27-.4.41l-1.18-.94,1.1,1-.38.41-1.2-.91,1.11,1c-.12.15-.25.29-.38.44l-1.2-.9,1.14,1c-.14.15-.27.31-.4.46-.62.77-1.18,1.51-1.68,2.27l-.37.55-1.32-.7,1.24.85-2,3.64-.67,1.65,0,.09-.16.45a1.5,1.5,0,0,1-1.29,1c-3.32.29-5.91,2.49-6.15,5.23A5.28,5.28,0,0,0,60.79,79a1.5,1.5,0,0,1-.08,2,3.7,3.7,0,0,0,2.63,6.3h.31a1.5,1.5,0,0,1,1.2.46A1.45,1.45,0,0,1,65.26,89a30.35,30.35,0,0,1-1.86,7.39.55.55,0,0,0,0,.49.54.54,0,0,0,.42.26L76.7,98.26a1.5,1.5,0,0,1,.91,2.57,12,12,0,0,1-10,3.82,18.91,18.91,0,0,1-9.5-3.91,3.83,3.83,0,0,0-.82-.5,1.5,1.5,0,0,1-.47-2.38V94.94l-20.05-.06,0,3,1,.06a1.5,1.5,0,0,1,1.5,1.5v6.49a1.5,1.5,0,0,1-1.5,1.5H33.83a5.28,5.28,0,0,0-5.28,5.27v26.17a4.89,4.89,0,0,0,0,.54,5.26,5.26,0,0,0,5.25,4.73,1.5,1.5,0,0,1,1.5,1.5v4.14a.11.11,0,0,0,.11.11H38a.1.1,0,0,0,.1-.11v-4.14a1.5,1.5,0,0,1,1.5-1.5H53.94a1.5,1.5,0,0,1,1.5,1.5v4.14a.11.11,0,0,0,.11.11h2.53a.11.11,0,0,0,.11-.11v-4.14a1.5,1.5,0,0,1,1.5-1.5A5.27,5.27,0,0,0,65,138.82V114.68a1.5,1.5,0,0,1,1.67-1.49l.19,0a20.5,20.5,0,0,0,9.86-1.47,1.48,1.48,0,0,1,1.41.13,1.51,1.51,0,0,1,.68,1.24c0,4.81.65,8.53,1.88,11.39a14.3,14.3,0,0,0,1.27,2.33,1.46,1.46,0,0,1,.27.85v18.53a4.3,4.3,0,0,0,4.29,4.29l.39,0a4.21,4.21,0,0,0,2.45-1.06l1.12,1-1-1.1,1.16,1-1.07-1.05.09-.1.1-.1a4.25,4.25,0,0,0,1-2.4,4.21,4.21,0,0,0,0-.44v-12.4a1.51,1.51,0,0,1,.49-1.11,1.44,1.44,0,0,1,1.15-.38h.17l.57.06h.15l.74,0,1,0c.51,0,1,0,1.58,0l.82,0L97.7,134l-.08-1.5.73,0h.16l.57-.06h.2l.39-.05ZM49.94,107.38H41a1.51,1.51,0,0,1-1.5-1.5V99.39a1.5,1.5,0,0,1,1.5-1.5H52.13a1.49,1.49,0,0,1,.86,2.72,4.32,4.32,0,0,0-.92.89,4.25,4.25,0,0,0-.7,3.92,1.51,1.51,0,0,1-1.43,2Zm-7.44-3h5.67a7.27,7.27,0,0,1,.76-3.49H42.5Z"/></g></g></svg>