<svg xmlns="http://www.w3.org/2000/svg" viewBox="0 0 630 200"><defs><style>.cls-1{fill:#d11f30;}.cls-2{fill:#fdd24f;}.cls-3{fill:#196e6e;}.cls-4{fill:#fff;}</style></defs><title>Basic</title><g id="Layer_2" data-name="Layer 2"><g id="Layer_1-2" data-name="Layer 1"><rect class="cls-1" width="630" height="200" rx="10"/><path class="cls-2" d="M83,155,46,118a20,20,0,0,1-5.86-14.14V57.05a12.67,12.67,0,0,1,21.63-9L83,69.31Z"/><path class="cls-3" d="M83,155l37-37a20,20,0,0,0,5.86-14.14V57.05a12.67,12.67,0,0,0-21.63-9L83,69.31Z"/><path class="cls-4" d="M83,154.43a6.5,6.5,0,0,1-4.6-1.91L45,119.07a21.36,21.36,0,0,1-6.3-15.2V57.05a14.18,14.18,0,0,1,24.2-10L80.52,64.71a3.6,3.6,0,0,0,5,0L103.15,47a14.18,14.18,0,0,1,24.2,10v46.82a21.36,21.36,0,0,1-6.3,15.2L87.6,152.52A6.5,6.5,0,0,1,83,154.43ZM52.9,45.85a11.35,11.35,0,0,0-4.35.88,11,11,0,0,0-6.9,10.32v46.82A18.39,18.39,0,0,0,47.07,117L80.52,150.4a3.58,3.58,0,0,0,5,0L118.93,117a18.39,18.39,0,0,0,5.42-13.08V57.05a11.17,11.17,0,0,0-19.07-7.9L87.6,66.83a6.52,6.52,0,0,1-9.2,0L60.72,49.15A11,11,0,0,0,52.9,45.85Z"/><path class="cls-4" d="M217.63,91.93c0,6.54-5.18,10.32-15.12,10.32H183V64.45h18.47c9.45,0,14.31,3.94,14.31,9.82a9.09,9.09,0,0,1-5,8.32A9.33,9.33,0,0,1,217.63,91.93Zm-26-20.9v8.91h8.69c4.27,0,6.59-1.51,6.59-4.48S204.62,71,200.35,71Zm17.17,20c0-3.18-2.43-4.69-7-4.69h-10.2v9.34h10.2C206.4,95.66,208.83,94.25,208.83,91Z"/><path class="cls-4" d="M249.38,85.67v16.58H241.5V98.63c-1.57,2.64-4.59,4.05-8.86,4.05-6.8,0-10.85-3.78-10.85-8.8s3.62-8.7,12.47-8.7H241c0-3.62-2.16-5.72-6.7-5.72a13.93,13.93,0,0,0-8.37,2.7l-3-5.89c3.18-2.27,7.88-3.51,12.53-3.51C244.25,72.76,249.38,76.87,249.38,85.67ZM241,93.07v-3h-5.78c-3.94,0-5.18,1.45-5.18,3.4S231.78,97,234.75,97C237.56,97,240,95.71,241,93.07Z"/><path class="cls-4" d="M254.19,99.55l2.81-6a19.89,19.89,0,0,0,10.09,2.81c3.89,0,5.35-1,5.35-2.65,0-4.75-17.55.11-17.55-11.5,0-5.51,5-9.4,13.45-9.4,4,0,8.42.92,11.17,2.54l-2.8,6a16.72,16.72,0,0,0-8.37-2.16c-3.78,0-5.4,1.19-5.4,2.7,0,5,17.55.17,17.55,11.61,0,5.4-5,9.24-13.72,9.24C261.86,102.68,256.89,101.33,254.19,99.55Z"/><path class="cls-4" d="M284.64,64.45c0-2.65,2.11-4.7,5.24-4.7s5.24,1.94,5.24,4.53c0,2.81-2.11,4.86-5.24,4.86S284.64,67.09,284.64,64.45Zm1,8.74h8.42v29.06h-8.42Z"/><path class="cls-4" d="M299.76,87.72c0-8.75,6.75-15,16.2-15,6.11,0,10.91,2.65,13,7.4l-6.54,3.51a7.24,7.24,0,0,0-6.53-4c-4.27,0-7.62,3-7.62,8s3.35,8,7.62,8a7.13,7.13,0,0,0,6.53-4L329,95.33c-2.11,4.65-6.91,7.35-13,7.35C306.51,102.68,299.76,96.47,299.76,87.72Z"/><path class="cls-4" d="M182.76,120.24h1.48v14h-1.48Z"/><path class="cls-4" d="M198.18,128.15v6.1h-1.42v-6c0-2.22-1.16-3.36-3.16-3.36a3.45,3.45,0,0,0-3.68,3.81v5.52H188.5V123.72h1.36v1.94a4.42,4.42,0,0,1,4-2C196.42,123.64,198.18,125.12,198.18,128.15Z"/><path class="cls-4" d="M212.82,133.61a3.38,3.38,0,0,1-2.22.74,2.79,2.79,0,0,1-3.08-3.06v-6.37h-1.88v-1.2h1.88v-2.3h1.42v2.3h3.2v1.2h-3.2v6.29a1.68,1.68,0,0,0,1.82,1.92,2.35,2.35,0,0,0,1.56-.54Z"/><path class="cls-4" d="M225.08,128.15v6.1h-1.42v-6c0-2.22-1.16-3.36-3.16-3.36a3.45,3.45,0,0,0-3.68,3.81v5.52H215.4V119.4h1.42v6.16a4.45,4.45,0,0,1,3.94-1.92C223.32,123.64,225.08,125.12,225.08,128.15Z"/><path class="cls-4" d="M228.62,120.4a1,1,0,0,1,1-1,1,1,0,0,1,1,1,1,1,0,0,1-2.08,0Zm.32,3.32h1.42v10.53h-1.42Z"/><path class="cls-4" d="M232.86,133.05l.64-1.12a6.35,6.35,0,0,0,3.74,1.18c2,0,2.82-.68,2.82-1.72,0-2.74-6.82-.58-6.82-4.75,0-1.72,1.48-3,4.16-3a7.13,7.13,0,0,1,3.72,1l-.62,1.14a5.39,5.39,0,0,0-3.1-.9c-1.9,0-2.74.74-2.74,1.74,0,2.85,6.82.7,6.82,4.75,0,1.82-1.6,3-4.34,3A7,7,0,0,1,232.86,133.05Z"/><path class="cls-4" d="M249.34,119.4h1.42v14.85h-1.42Z"/><path class="cls-4" d="M263.88,129.43h-8.8a3.89,3.89,0,0,0,4.14,3.66,4.15,4.15,0,0,0,3.22-1.38l.8.92a5.56,5.56,0,0,1-9.58-3.65,5.07,5.07,0,0,1,5.14-5.34,5,5,0,0,1,5.1,5.34C263.9,129.1,263.88,129.27,263.88,129.43Zm-8.8-1.07h7.46a3.74,3.74,0,0,0-7.46,0Z"/><path class="cls-4" d="M275.44,123.72l-4.68,10.53H269.3l-4.66-10.53h1.48l3.94,9,4-9Z"/><path class="cls-4" d="M286.3,129.43h-8.8a3.89,3.89,0,0,0,4.14,3.66,4.15,4.15,0,0,0,3.22-1.38l.8.92a5.56,5.56,0,0,1-9.58-3.65,5.07,5.07,0,0,1,5.14-5.34,5,5,0,0,1,5.1,5.34C286.32,129.1,286.3,129.27,286.3,129.43Zm-8.8-1.07H285a3.74,3.74,0,0,0-7.46,0Z"/><path class="cls-4" d="M289.22,119.4h1.42v14.85h-1.42Z"/><path class="cls-4" d="M298.78,129a5.18,5.18,0,0,1,5.42-5.34,4.59,4.59,0,0,1,4.12,2.08l-1.06.72a3.58,3.58,0,0,0-3.06-1.56,4.11,4.11,0,0,0,0,8.21,3.56,3.56,0,0,0,3.06-1.54l1.06.72a4.64,4.64,0,0,1-4.12,2.08A5.2,5.2,0,0,1,298.78,129Z"/><path class="cls-4" d="M309.86,129a5.35,5.35,0,1,1,5.36,5.37A5.17,5.17,0,0,1,309.86,129Zm9.26,0a3.91,3.91,0,1,0-3.9,4.11A3.84,3.84,0,0,0,319.12,129Z"/><path class="cls-4" d="M333.14,128.15v6.1h-1.42v-6c0-2.22-1.16-3.36-3.16-3.36a3.45,3.45,0,0,0-3.68,3.81v5.52h-1.42V123.72h1.36v1.94a4.42,4.42,0,0,1,4-2C331.38,123.64,333.14,125.12,333.14,128.15Z"/><path class="cls-4" d="M342.54,133.61a3.38,3.38,0,0,1-2.22.74,2.79,2.79,0,0,1-3.08-3.06v-6.37h-1.88v-1.2h1.88v-2.3h1.42v2.3h3.2v1.2h-3.2v6.29a1.68,1.68,0,0,0,1.82,1.92,2.35,2.35,0,0,0,1.56-.54Z"/><path class="cls-4" d="M353.06,127.72v6.53H351.7v-1.64a4,4,0,0,1-3.62,1.74c-2.38,0-3.84-1.24-3.84-3.06,0-1.62,1-3,4.06-3h3.34v-.64c0-1.8-1-2.78-3-2.78a5.36,5.36,0,0,0-3.5,1.24l-.64-1.06a6.68,6.68,0,0,1,4.28-1.42C351.52,123.64,353.06,125,353.06,127.72Zm-1.42,3.37v-1.72h-3.3c-2,0-2.7.8-2.7,1.88s1,2,2.66,2A3.37,3.37,0,0,0,351.64,131.09Z"/><path class="cls-4" d="M356.6,120.4a1,1,0,0,1,1-1,1,1,0,0,1,1,1,1,1,0,0,1-2.08,0Zm.32,3.32h1.42v10.53h-1.42Z"/><path class="cls-4" d="M372,128.15v6.1h-1.42v-6c0-2.22-1.16-3.36-3.16-3.36a3.45,3.45,0,0,0-3.68,3.81v5.52H362.3V123.72h1.36v1.94a4.42,4.42,0,0,1,4-2C370.22,123.64,372,125.12,372,128.15Z"/><path class="cls-4" d="M374.38,133.05l.64-1.12a6.35,6.35,0,0,0,3.74,1.18c2,0,2.82-.68,2.82-1.72,0-2.74-6.82-.58-6.82-4.75,0-1.72,1.48-3,4.16-3a7.13,7.13,0,0,1,3.72,1l-.62,1.14a5.39,5.39,0,0,0-3.1-.9c-1.9,0-2.74.74-2.74,1.74,0,2.85,6.82.7,6.82,4.75,0,1.82-1.6,3-4.34,3A7,7,0,0,1,374.38,133.05Z"/><path class="cls-4" d="M396.4,133.61a3.38,3.38,0,0,1-2.22.74,2.79,2.79,0,0,1-3.08-3.06v-6.37h-1.88v-1.2h1.88v-2.3h1.42v2.3h3.2v1.2h-3.2v6.29a1.68,1.68,0,0,0,1.82,1.92,2.35,2.35,0,0,0,1.56-.54Z"/><path class="cls-4" d="M408.66,128.15v6.1h-1.42v-6c0-2.22-1.16-3.36-3.16-3.36a3.45,3.45,0,0,0-3.68,3.81v5.52H399V119.4h1.42v6.16a4.45,4.45,0,0,1,3.94-1.92C406.9,123.64,408.66,125.12,408.66,128.15Z"/><path class="cls-4" d="M421.72,129.43h-8.8a3.89,3.89,0,0,0,4.14,3.66,4.15,4.15,0,0,0,3.22-1.38l.8.92A5.56,5.56,0,0,1,411.5,129a5.07,5.07,0,0,1,5.14-5.34,5,5,0,0,1,5.1,5.34C421.74,129.1,421.72,129.27,421.72,129.43Zm-8.8-1.07h7.46a3.74,3.74,0,0,0-7.46,0Z"/><path class="cls-4" d="M440.54,129a5.11,5.11,0,0,1-5.24,5.37,4.56,4.56,0,0,1-4.06-2.18v2.08h-1.36V119.4h1.42v6.32a4.59,4.59,0,0,1,4-2.08A5.09,5.09,0,0,1,440.54,129Zm-1.42,0a3.92,3.92,0,1,0-3.92,4.11A3.86,3.86,0,0,0,439.12,129Z"/><path class="cls-4" d="M451.32,127.72v6.53H450v-1.64a4,4,0,0,1-3.62,1.74c-2.38,0-3.84-1.24-3.84-3.06,0-1.62,1-3,4.06-3h3.34v-.64c0-1.8-1-2.78-3-2.78a5.36,5.36,0,0,0-3.5,1.24l-.64-1.06a6.68,6.68,0,0,1,4.28-1.42C449.78,123.64,451.32,125,451.32,127.72Zm-1.42,3.37v-1.72h-3.3c-2,0-2.7.8-2.7,1.88s1,2,2.66,2A3.37,3.37,0,0,0,449.9,131.09Z"/><path class="cls-4" d="M453.72,133.05l.64-1.12a6.35,6.35,0,0,0,3.74,1.18c2,0,2.82-.68,2.82-1.72,0-2.74-6.82-.58-6.82-4.75,0-1.72,1.48-3,4.16-3a7.13,7.13,0,0,1,3.72,1l-.62,1.14a5.39,5.39,0,0,0-3.1-.9c-1.9,0-2.74.74-2.74,1.74,0,2.85,6.82.7,6.82,4.75,0,1.82-1.6,3-4.34,3A7,7,0,0,1,453.72,133.05Z"/><path class="cls-4" d="M464.64,120.4a1,1,0,0,1,1-1,1,1,0,0,1,1,1,1,1,0,0,1-2.08,0Zm.32,3.32h1.42v10.53H465Z"/><path class="cls-4" d="M469.28,129a5.18,5.18,0,0,1,5.42-5.34,4.59,4.59,0,0,1,4.12,2.08l-1.06.72a3.58,3.58,0,0,0-3.06-1.56,4.11,4.11,0,0,0,0,8.21,3.56,3.56,0,0,0,3.06-1.54l1.06.72a4.64,4.64,0,0,1-4.12,2.08A5.2,5.2,0,0,1,469.28,129Z"/><path class="cls-4" d="M181.4,153a5.18,5.18,0,0,1,5.42-5.34,4.59,4.59,0,0,1,4.12,2.08l-1.06.72a3.58,3.58,0,0,0-3.06-1.56,4.11,4.11,0,0,0,0,8.21,3.56,3.56,0,0,0,3.06-1.54l1.06.72a4.64,4.64,0,0,1-4.12,2.08A5.2,5.2,0,0,1,181.4,153Z"/><path class="cls-4" d="M192.48,153a5.35,5.35,0,1,1,5.36,5.37A5.17,5.17,0,0,1,192.48,153Zm9.26,0a3.91,3.91,0,1,0-3.9,4.11A3.84,3.84,0,0,0,201.74,153Z"/><path class="cls-4" d="M215.76,152.15v6.1h-1.42v-6c0-2.22-1.16-3.36-3.16-3.36a3.45,3.45,0,0,0-3.68,3.81v5.52h-1.42V147.72h1.36v1.94a4.42,4.42,0,0,1,4-2C214,147.64,215.76,149.12,215.76,152.15Z"/><path class="cls-4" d="M228.26,147.72l-4.68,10.53h-1.46l-4.66-10.53h1.48l3.94,9,4-9Z"/><path class="cls-4" d="M239.12,153.43h-8.8a3.89,3.89,0,0,0,4.14,3.66,4.15,4.15,0,0,0,3.22-1.38l.8.92A5.56,5.56,0,0,1,228.9,153a5.07,5.07,0,0,1,5.14-5.34,5,5,0,0,1,5.1,5.34C239.14,153.1,239.12,153.27,239.12,153.43Zm-8.8-1.07h7.46a3.74,3.74,0,0,0-7.46,0Z"/><path class="cls-4" d="M247.34,147.64V149l-.34,0c-2.2,0-3.54,1.4-3.54,3.88v5.37H242V147.72h1.36v2.06A4,4,0,0,1,247.34,147.64Z"/><path class="cls-4" d="M248.52,157.05l.64-1.12a6.35,6.35,0,0,0,3.74,1.18c2,0,2.82-.68,2.82-1.72,0-2.74-6.82-.58-6.82-4.75,0-1.72,1.48-3,4.16-3a7.13,7.13,0,0,1,3.72,1l-.62,1.14a5.39,5.39,0,0,0-3.1-.9c-1.9,0-2.74.74-2.74,1.74,0,2.85,6.82.7,6.82,4.75,0,1.82-1.6,3-4.34,3A7,7,0,0,1,248.52,157.05Z"/><path class="cls-4" d="M267.7,151.72v6.53h-1.36v-1.64a4,4,0,0,1-3.62,1.74c-2.38,0-3.84-1.24-3.84-3.06,0-1.62,1-3,4.06-3h3.34v-.64c0-1.8-1-2.78-3-2.78a5.36,5.36,0,0,0-3.5,1.24l-.64-1.06a6.68,6.68,0,0,1,4.28-1.42C266.16,147.64,267.7,149,267.7,151.72Zm-1.42,3.37v-1.72H263c-2,0-2.7.8-2.7,1.88s1,2,2.66,2A3.37,3.37,0,0,0,266.28,155.09Z"/><path class="cls-4" d="M277.1,157.61a3.38,3.38,0,0,1-2.22.74,2.79,2.79,0,0,1-3.08-3.06v-6.37h-1.88v-1.2h1.88v-2.3h1.42v2.3h3.2v1.2h-3.2v6.29a1.68,1.68,0,0,0,1.82,1.92,2.35,2.35,0,0,0,1.56-.54Z"/><path class="cls-4" d="M279.36,144.4a1,1,0,0,1,1-1,1,1,0,0,1,1,1,1,1,0,0,1-2.08,0Zm.32,3.32h1.42v10.53h-1.42Z"/><path class="cls-4" d="M284,153a5.35,5.35,0,1,1,5.36,5.37A5.17,5.17,0,0,1,284,153Zm9.26,0a3.91,3.91,0,1,0-3.9,4.11A3.84,3.84,0,0,0,293.26,153Z"/><path class="cls-4" d="M307.28,152.15v6.1h-1.42v-6c0-2.22-1.16-3.36-3.16-3.36a3.45,3.45,0,0,0-3.68,3.81v5.52H297.6V147.72H299v1.94a4.42,4.42,0,0,1,4-2C305.52,147.64,307.28,149.12,307.28,152.15Z"/></g></g></svg>