<svg xmlns="http://www.w3.org/2000/svg" viewBox="0 0 197.02 60"><defs><style>.cls-1{fill:#fff;}</style></defs><title>Logo</title><g id="Layer_2" data-name="Layer 2"><g id="Layer_1-2" data-name="Layer 1"><path class="cls-1" d="M30,0A30,30,0,1,0,60,30,30,30,0,0,0,30,0Zm7.71,43.17a2.78,2.78,0,1,1,2.78-2.78A2.77,2.77,0,0,1,37.71,43.17Zm9.72-29.82-11.67,2.7c0,.43,0,.86,0,1.28,0,.94-.1,1.88-.19,2.81a42.6,42.6,0,0,1-.9,5.5A35.45,35.45,0,0,1,33,31a29.38,29.38,0,0,1-2.56,5,24.51,24.51,0,0,1-3.53,4.28c-.32.32-.67.62-1,.92l-.53.44-.13.1-.13.11-.28.2-.27.21-.28.2-.28.19-.28.19-.57.36-.29.18-.29.17-.29.17-.3.16-.59.31c-.41.19-.8.39-1.21.56a24.62,24.62,0,0,1-2.48.92,30,30,0,0,1-5.05,1.06h0a28.56,28.56,0,0,0,4.7-2,21.65,21.65,0,0,0,2.15-1.31c.34-.22.67-.48,1-.73l.48-.38.24-.2.23-.2.24-.21.22-.2.45-.42.21-.22.21-.22.21-.22.2-.23.21-.22.1-.11.09-.12.39-.47c.24-.32.49-.64.72-1a21.31,21.31,0,0,0,2.25-4.18,25.64,25.64,0,0,0,1.32-4.54,31,31,0,0,0,.52-4.7,35.56,35.56,0,0,0-.16-4.73c-.07-.77-.17-1.54-.29-2.29L16.79,20.45l-.8-8,31.43.87Z"/><path class="cls-1" d="M94.46,43.26A2.09,2.09,0,0,1,93.69,45a2.62,2.62,0,0,1-1.76.66,2.08,2.08,0,0,1-1.64-.85L78.9,30.09l-5.26,5v8.16a2.24,2.24,0,0,1-2.34,2.3,2.22,2.22,0,0,1-1.67-.66A2.29,2.29,0,0,1,69,43.22V14.94a2.15,2.15,0,0,1,.66-1.59,2.28,2.28,0,0,1,1.69-.66,2.25,2.25,0,0,1,1.66.63,2.19,2.19,0,0,1,.63,1.62V29.52L90.29,13.39a2.68,2.68,0,0,1,1.78-.79,1.86,1.86,0,0,1,1.46.7,2.29,2.29,0,0,1,.61,1.5,2.23,2.23,0,0,1-.66,1.45L82.37,26.76,94,41.72A2.42,2.42,0,0,1,94.46,43.26Z"/><path class="cls-1" d="M121.08,21.25a2.24,2.24,0,0,1,.63,1.66V43.26a2.23,2.23,0,0,1-.63,1.6,2.32,2.32,0,0,1-3.22,0,2.25,2.25,0,0,1-.6-1.62V42.05a10.28,10.28,0,0,1-3.33,2.79A9.45,9.45,0,0,1,109.38,46a10.56,10.56,0,0,1-5.79-1.64,11.19,11.19,0,0,1-4.08-4.57A14.36,14.36,0,0,1,98,33.18a14.39,14.39,0,0,1,1.48-6.59,11.33,11.33,0,0,1,4-4.57,10.75,10.75,0,0,1,10.3-.61,9.71,9.71,0,0,1,3.4,2.63V22.91a2.35,2.35,0,0,1,.6-1.64,2.08,2.08,0,0,1,1.6-.66A2.2,2.2,0,0,1,121.08,21.25Zm-7.27,19.48a7.6,7.6,0,0,0,2.67-3.09,10.72,10.72,0,0,0,0-8.87,7.73,7.73,0,0,0-2.67-3.11,6.84,6.84,0,0,0-3.92-1.15A6.94,6.94,0,0,0,106,25.63a7.59,7.59,0,0,0-2.68,3.1,10.82,10.82,0,0,0,0,8.91A7.63,7.63,0,0,0,106,40.73a7.35,7.35,0,0,0,7.83,0Z"/><path class="cls-1" d="M128.35,17.12a1.91,1.91,0,0,1-.59-1.57V14.8a1.88,1.88,0,0,1,.63-1.6,3.3,3.3,0,0,1,2-.46,2.94,2.94,0,0,1,1.9.49,1.94,1.94,0,0,1,.58,1.57v.75a1.87,1.87,0,0,1-.61,1.59,3.08,3.08,0,0,1-1.92.47A3,3,0,0,1,128.35,17.12Zm3.56,27.74a2.14,2.14,0,0,1-1.62.66,2.09,2.09,0,0,1-1.57-.66,2.23,2.23,0,0,1-.63-1.6V23a2.23,2.23,0,0,1,.63-1.6,2.12,2.12,0,0,1,1.57-.65,2.17,2.17,0,0,1,1.62.65,2.23,2.23,0,0,1,.63,1.6v20.3A2.23,2.23,0,0,1,131.91,44.86Z"/><path class="cls-1" d="M169.19,21.34a2.19,2.19,0,0,1,.63,1.62,3.15,3.15,0,0,1-.18.89l-7.18,20.26a2.09,2.09,0,0,1-.94,1.12,2.2,2.2,0,0,1-1.4.29,2.31,2.31,0,0,1-1.93-1.41l-4.87-12.76-4.51,12.76a2.24,2.24,0,0,1-.79,1,2.44,2.44,0,0,1-1.13.4,2.1,2.1,0,0,1-1.38-.31,2,2,0,0,1-.92-1.1l-7.26-20.26a2.64,2.64,0,0,1-.15-.89,2.3,2.3,0,0,1,.61-1.6,2.11,2.11,0,0,1,1.6-.65,2,2,0,0,1,2.06,1.4L147,37.92l4.46-11.68a2,2,0,0,1,2.06-1.41,1.91,1.91,0,0,1,1.92,1.41L160,37.73l5.49-15.62a2.28,2.28,0,0,1,3.68-.77Z"/><path class="cls-1" d="M196.39,21.25a2.24,2.24,0,0,1,.63,1.66V43.26a2.23,2.23,0,0,1-.63,1.6,2.14,2.14,0,0,1-1.62.66,2.1,2.1,0,0,1-1.59-.64,2.22,2.22,0,0,1-.61-1.62V42.05a10.28,10.28,0,0,1-3.33,2.79A9.45,9.45,0,0,1,184.69,46a10.56,10.56,0,0,1-5.79-1.64,11.19,11.19,0,0,1-4.08-4.57,14.36,14.36,0,0,1-1.48-6.59,14.39,14.39,0,0,1,1.48-6.59A11.33,11.33,0,0,1,178.87,22a10.75,10.75,0,0,1,10.3-.61,9.71,9.71,0,0,1,3.4,2.63V22.91a2.32,2.32,0,0,1,.61-1.64,2,2,0,0,1,1.59-.66A2.2,2.2,0,0,1,196.39,21.25Zm-7.27,19.48a7.6,7.6,0,0,0,2.67-3.09,10.72,10.72,0,0,0,0-8.87,7.73,7.73,0,0,0-2.67-3.11,6.84,6.84,0,0,0-3.92-1.15,6.94,6.94,0,0,0-3.91,1.12,7.57,7.57,0,0,0-2.67,3.1,9.9,9.9,0,0,0-1,4.45,9.94,9.94,0,0,0,1,4.46,7.6,7.6,0,0,0,2.67,3.09,7.35,7.35,0,0,0,7.83,0Z"/></g></g></svg>